<svg width="128" height="140" viewBox="0 0 128 140" fill="none" xmlns="http://www.w3.org/2000/svg">
<g filter="url(#filter0_f_4531_26265)">
<rect x="3" y="3" width="122" height="134" rx="48" fill="#1B0B04" fill-opacity="0.4"/>
</g>
<mask id="mask0_4531_26265" style="mask-type:alpha" maskUnits="userSpaceOnUse" x="3" y="2" width="122" height="134">
<rect x="3" y="2" width="122" height="134" rx="42" fill="url(#paint0_linear_4531_26265)"/>
</mask>
<g mask="url(#mask0_4531_26265)">
<rect x="3" y="2" width="122" height="134" rx="48" fill="#BB6301"/>
<g filter="url(#filter1_di_4531_26265)">
<mask id="mask1_4531_26265" style="mask-type:alpha" maskUnits="userSpaceOnUse" x="3" y="2" width="122" height="122">
<rect x="3" y="2" width="122" height="122" rx="48" fill="#F9D96D"/>
</mask>
<g mask="url(#mask1_4531_26265)">
<g filter="url(#filter2_i_4531_26265)">
<rect x="3" y="2" width="122" height="122" rx="48" fill="#FFA401"/>
</g>
<g filter="url(#filter3_d_4531_26265)">
<rect x="9" y="7" width="110" height="112" rx="45" fill="#FE7A00"/>
</g>
<g filter="url(#filter4_i_4531_26265)">
<rect x="9" y="2" width="110" height="115" rx="45" fill="#FEB800"/>
</g>
</g>
</g>
</g>
<g filter="url(#filter5_f_4531_26265)">
<path d="M25.708 34.3689C25.1969 36.2428 20.0862 54.4711 19.4048 57.3672C19.0073 58.5029 18.553 61.2514 19.9158 63.1594C21.6194 65.5444 32.0111 76.2769 36.6108 79.5137C41.2104 82.7505 45.4693 81.8987 46.4914 81.8987C47.5136 81.8987 61.6531 77.6398 65.0602 76.9583C68.4674 76.2769 70.1709 73.8919 70.8524 71.5069C71.5338 69.1219 75.452 56.0043 76.6445 51.064C77.837 46.1236 76.8148 42.5461 73.5781 39.3093C70.3413 36.0725 64.3788 30.7914 59.6088 28.236C54.8389 25.6806 48.0246 25.851 46.1507 26.1917C44.2768 26.5324 34.7368 28.0656 31.3297 28.9174C27.9226 29.7692 26.219 32.4949 25.708 34.3689Z" fill="#B46002" fill-opacity="0.2"/>
</g>
<path d="M41.708 26.3689C41.1969 28.2428 36.0862 46.4711 35.4048 49.3672C35.0073 50.5029 34.553 53.2514 35.9158 55.1594C37.6194 57.5444 48.0111 68.2769 52.6108 71.5137C57.2104 74.7505 61.4693 73.8987 62.4914 73.8987C63.5135 73.8987 77.6531 69.6398 81.0602 68.9583C84.4674 68.2769 86.1709 65.8919 86.8524 63.5069C87.5338 61.1219 91.452 48.0043 92.6445 43.064C93.837 38.1236 92.8148 34.5461 89.5781 31.3093C86.3413 28.0725 80.3788 22.7914 75.6088 20.236C70.8389 17.6806 64.0246 17.851 62.1507 18.1917C60.2768 18.5324 50.7368 20.0656 47.3297 20.9174C43.9226 21.7692 42.219 24.4949 41.708 26.3689Z" fill="url(#paint1_linear_4531_26265)"/>
<g filter="url(#filter6_di_4531_26265)">
<path fill-rule="evenodd" clip-rule="evenodd" d="M55.1162 73.0201C56.1421 69.4852 58.4157 61.4178 59.3673 57.2036C60.5598 51.9225 57.6637 46.8118 55.4491 44.9378C54.3418 44.0009 52.4253 42.0843 50.4449 40.1039C48.4645 38.1235 46.4202 36.0792 45.0574 34.8867C42.3317 32.5017 40.4578 35.2274 39.9467 36.4199C39.5378 37.3739 36.5964 48.0611 35.1767 53.2854L35 53.6927C35.1438 54.207 35.3648 54.7068 35.688 55.1593C37.3916 57.5443 47.7833 68.2769 52.3829 71.5137C53.3161 72.1703 54.2352 72.6587 55.1162 73.0201Z" fill="url(#paint2_linear_4531_26265)" shape-rendering="crispEdges"/>
</g>
<g filter="url(#filter7_di_4531_26265)">
<path fill-rule="evenodd" clip-rule="evenodd" d="M84.2633 67.5862C85.7604 62.5731 88.8173 52.195 89.4906 49.3672C90.3424 45.7897 86.7649 45.7897 84.2096 45.96C81.6542 46.1304 76.3732 47.834 70.7514 49.7079C65.1297 51.5819 62.5743 57.2037 62.0633 58.9072C61.6572 60.2608 59.3131 69.3441 58.1685 73.8073C59.8523 74.0957 61.2237 73.9914 62.0273 73.9303C62.2589 73.9127 62.4434 73.8987 62.5745 73.8987C63.0904 73.8987 66.9478 72.8138 71.0803 71.6515C75.1356 70.5109 79.4558 69.2958 81.1433 68.9583C82.4056 68.7059 83.434 68.2196 84.2633 67.5862Z" fill="url(#paint3_linear_4531_26265)" shape-rendering="crispEdges"/>
</g>
<g filter="url(#filter8_d_4531_26265)">
<path d="M64.8879 45.2787C56.8812 43.9158 48.5337 33.3537 47.0005 31.3094C44.1045 27.2208 47.5285 24.1295 49.2152 22.9618C51.1838 21.599 55.1776 20.5768 60.4587 19.5547C65.7397 18.5325 70.6801 19.5547 74.0872 20.9175C77.4943 22.2804 82.9457 26.8801 86.0121 30.2872C89.0785 33.6944 89.4192 36.4201 88.3971 38.9755C87.375 41.5308 81.5829 43.5751 79.1979 44.2566C76.8129 44.938 72.8947 46.6416 64.8879 45.2787Z" fill="url(#paint4_linear_4531_26265)"/>
</g>
<g filter="url(#filter9_di_4531_26265)">
<ellipse cx="3.75432" cy="2.71145" rx="3.75432" ry="2.71145" transform="matrix(-0.292937 -0.956135 0.956128 -0.29294 53.2806 56.8294)" fill="#ECD8B2"/>
</g>
<g filter="url(#filter10_i_4531_26265)">
<path fill-rule="evenodd" clip-rule="evenodd" d="M57.5441 51.8345C56.9368 49.852 55.2837 48.6005 53.8519 49.0392C53.2707 49.2173 52.8153 49.6464 52.52 50.2261C52.3665 50.9371 52.3979 51.7606 52.6513 52.5876C53.2587 54.5701 54.9118 55.8217 56.3436 55.383C56.9248 55.2049 57.3801 54.7757 57.6755 54.1961C57.8289 53.4851 57.7975 52.6616 57.5441 51.8345Z" fill="url(#paint5_radial_4531_26265)"/>
</g>
<g filter="url(#filter11_di_4531_26265)">
<ellipse cx="3.75432" cy="2.71145" rx="3.75432" ry="2.71145" transform="matrix(-0.292937 -0.956135 0.956128 -0.29294 46.0527 57.1252)" fill="#ECD8B2"/>
</g>
<g filter="url(#filter12_i_4531_26265)">
<path fill-rule="evenodd" clip-rule="evenodd" d="M50.3159 52.1303C49.7085 50.1478 48.0555 48.8963 46.6237 49.335C46.0425 49.5131 45.5871 49.9422 45.2918 50.5219C45.1383 51.2328 45.1697 52.0564 45.4231 52.8834C46.0305 54.8659 47.6836 56.1175 49.1154 55.6788C49.6965 55.5007 50.1519 55.0715 50.4473 54.4919C50.6007 53.7809 50.5693 52.9574 50.3159 52.1303Z" fill="url(#paint6_radial_4531_26265)"/>
</g>
<g filter="url(#filter13_di_4531_26265)">
<ellipse cx="3.75432" cy="2.71145" rx="3.75432" ry="2.71145" transform="matrix(-0.292937 -0.956135 0.956128 -0.29294 38.8248 57.4659)" fill="#ECD8B2"/>
</g>
<g filter="url(#filter14_i_4531_26265)">
<path fill-rule="evenodd" clip-rule="evenodd" d="M43.0879 52.4709C42.4805 50.4884 40.8274 49.2369 39.3956 49.6755C38.8145 49.8536 38.3591 50.2828 38.0637 50.8624C37.9103 51.5734 37.9417 52.397 38.1951 53.224C38.8025 55.2065 40.4555 56.458 41.8873 56.0193C42.4685 55.8413 42.9239 55.4121 43.2192 54.8324C43.3727 54.1215 43.3413 53.2979 43.0879 52.4709Z" fill="url(#paint7_radial_4531_26265)"/>
</g>
<g filter="url(#filter15_di_4531_26265)">
<ellipse cx="3.44897" cy="2.4596" rx="3.44897" ry="2.4596" transform="matrix(-0.497831 0.867273 -0.858511 -0.512798 84.8226 62.4958)" fill="#ECD8B2"/>
</g>
<g filter="url(#filter16_i_4531_26265)">
<path fill-rule="evenodd" clip-rule="evenodd" d="M78.9901 62.5543C77.9904 64.2958 78.167 66.2971 79.3844 67.0243C79.9731 67.3759 80.6974 67.3653 81.4015 67.0635C81.8177 66.7207 82.1987 66.2736 82.5048 65.7403C83.5045 63.9988 83.3279 61.9975 82.1105 61.2703C81.5218 60.9187 80.7975 60.9294 80.0934 61.2311C79.6772 61.5739 79.2962 62.021 78.9901 62.5543Z" fill="url(#paint8_radial_4531_26265)"/>
</g>
<g filter="url(#filter17_di_4531_26265)">
<ellipse cx="3.44897" cy="2.4596" rx="3.44897" ry="2.4596" transform="matrix(-0.497831 0.867273 -0.858511 -0.512798 72.5602 55.2599)" fill="#ECD8B2"/>
</g>
<g filter="url(#filter18_i_4531_26265)">
<path fill-rule="evenodd" clip-rule="evenodd" d="M66.7279 55.3184C65.7283 57.0599 65.9048 59.0612 67.1222 59.7884C67.711 60.1401 68.4354 60.1294 69.1396 59.8275C69.5556 59.4848 69.9364 59.0378 70.2424 58.5047C71.242 56.7632 71.0655 54.762 69.848 54.0348C69.2593 53.6831 68.5349 53.6938 67.8307 53.9956C67.4147 54.3384 67.0339 54.7853 66.7279 55.3184Z" fill="url(#paint9_radial_4531_26265)"/>
</g>
<g filter="url(#filter19_di_4531_26265)">
<ellipse cx="3.74549" cy="2.72178" rx="3.74549" ry="2.72178" transform="matrix(0.946789 0.321856 -0.3245 0.945886 57.7662 32.7778)" fill="#ECD8B2"/>
</g>
<g filter="url(#filter20_i_4531_26265)">
<path fill-rule="evenodd" clip-rule="evenodd" d="M59.0871 39.1057C61.1517 39.8076 63.2383 39.1733 63.7475 37.6889C63.9937 36.9713 63.8261 36.1863 63.354 35.4876C62.9001 35.1107 62.3431 34.7953 61.7106 34.5803C59.646 33.8784 57.5595 34.5127 57.0502 35.9971C56.804 36.7147 56.9716 37.4997 57.4438 38.1984C57.8976 38.5753 58.4546 38.8907 59.0871 39.1057Z" fill="url(#paint10_radial_4531_26265)"/>
</g>
<g filter="url(#filter21_di_4531_26265)">
<ellipse cx="3.74549" cy="2.72178" rx="3.74549" ry="2.72178" transform="matrix(0.946789 0.321856 -0.3245 0.945886 50.7662 26.5556)" fill="#ECD8B2"/>
</g>
<g filter="url(#filter22_i_4531_26265)">
<path fill-rule="evenodd" clip-rule="evenodd" d="M52.0872 32.8835C54.1518 33.5854 56.2383 32.9511 56.7475 31.4667C56.9938 30.7489 56.826 29.9638 56.3537 29.2649C55.8999 28.8883 55.3431 28.573 54.7109 28.3581C52.6463 27.6562 50.5598 28.2906 50.0505 29.7749C49.8043 30.4927 49.972 31.2779 50.4444 31.9767C50.8981 32.3534 51.455 32.6686 52.0872 32.8835Z" fill="url(#paint11_radial_4531_26265)"/>
</g>
<g filter="url(#filter23_di_4531_26265)">
<ellipse cx="3.74549" cy="2.72178" rx="3.74549" ry="2.72178" transform="matrix(0.946789 0.321856 -0.3245 0.945886 67.0995 31.2222)" fill="#ECD8B2"/>
</g>
<g filter="url(#filter24_i_4531_26265)">
<path fill-rule="evenodd" clip-rule="evenodd" d="M68.4202 37.5501C70.4848 38.252 72.5713 37.6177 73.0805 36.1333C73.3268 35.4155 73.1591 34.6304 72.6867 33.9315C72.2329 33.5549 71.6761 33.2396 71.0439 33.0247C68.9793 32.3228 66.8928 32.9572 66.3836 34.4415C66.1373 35.1593 66.305 35.9445 66.7774 36.6433C67.2311 37.0199 67.788 37.3352 68.4202 37.5501Z" fill="url(#paint12_radial_4531_26265)"/>
</g>
<g filter="url(#filter25_di_4531_26265)">
<ellipse cx="3.74549" cy="2.72178" rx="3.74549" ry="2.72178" transform="matrix(0.946789 0.321856 -0.3245 0.945886 60.0994 24.2222)" fill="#ECD8B2"/>
</g>
<g filter="url(#filter26_i_4531_26265)">
<path fill-rule="evenodd" clip-rule="evenodd" d="M61.4203 30.5502C63.485 31.252 65.5715 30.6177 66.0807 29.1334C66.327 28.4156 66.1592 27.6304 65.6868 26.9315C65.2331 26.5549 64.6763 26.2396 64.0441 26.0247C61.9795 25.3229 59.893 25.9572 59.3837 27.4415C59.1375 28.1593 59.3052 28.9445 59.7776 29.6433C60.2313 30.02 60.7882 30.3352 61.4203 30.5502Z" fill="url(#paint13_radial_4531_26265)"/>
</g>
<g filter="url(#filter27_di_4531_26265)">
<ellipse cx="3.74549" cy="2.72178" rx="3.74549" ry="2.72178" transform="matrix(0.946789 0.321856 -0.3245 0.945886 76.4324 29.6666)" fill="#ECD8B2"/>
</g>
<g filter="url(#filter28_i_4531_26265)">
<path fill-rule="evenodd" clip-rule="evenodd" d="M77.7532 35.9945C79.8179 36.6964 81.9044 36.0621 82.4136 34.5777C82.6598 33.8599 82.4921 33.0748 82.0197 32.3759C81.566 31.9993 81.0092 31.684 80.377 31.4691C78.3124 30.7672 76.2258 31.4016 75.7166 32.8859C75.4704 33.6037 75.6381 34.3888 76.1105 35.0877C76.5642 35.4643 77.121 35.7796 77.7532 35.9945Z" fill="url(#paint14_radial_4531_26265)"/>
</g>
<g filter="url(#filter29_di_4531_26265)">
<ellipse cx="3.74549" cy="2.72178" rx="3.74549" ry="2.72178" transform="matrix(0.946789 0.321856 -0.3245 0.945886 69.4327 22.6666)" fill="#ECD8B2"/>
</g>
<g filter="url(#filter30_i_4531_26265)">
<path fill-rule="evenodd" clip-rule="evenodd" d="M70.7535 28.9945C72.8181 29.6964 74.9046 29.0621 75.4138 27.5778C75.6601 26.86 75.4924 26.0748 75.02 25.3759C74.5662 24.9993 74.0094 24.684 73.3772 24.4691C71.3126 23.7673 69.2261 24.4016 68.7169 25.8859C68.4706 26.6037 68.6383 27.3889 69.1107 28.0878C69.5645 28.4644 70.1213 28.7796 70.7535 28.9945Z" fill="url(#paint15_radial_4531_26265)"/>
</g>
<path d="M32.0633 94.972H34.0793V86.98L32.0633 87.124V84.004C32.7673 84.004 33.5273 83.876 34.3433 83.62C35.1593 83.348 35.9513 82.956 36.7193 82.444H39.2393V94.972H41.2553V98.5H32.0633V94.972ZM47.9194 81.988H55.0954C56.8234 81.988 58.3514 82.332 59.6794 83.02C61.0234 83.708 62.0634 84.668 62.7994 85.9C63.5514 87.132 63.9274 88.54 63.9274 90.124C63.9274 91.788 63.5594 93.252 62.8234 94.516C62.1034 95.78 61.0714 96.764 59.7274 97.468C58.3994 98.156 56.8554 98.5 55.0954 98.5H47.9194V81.988ZM54.8554 94.18C56.0554 94.18 56.9674 93.804 57.5914 93.052C58.2314 92.284 58.5514 91.292 58.5514 90.076C58.5514 88.924 58.2394 88.012 57.6154 87.34C57.0074 86.652 56.0874 86.308 54.8554 86.308H53.2234V94.18H54.8554ZM70.1115 98.692C68.7675 98.692 67.7195 98.26 66.9675 97.396C66.2155 96.532 65.8395 95.356 65.8395 93.868V86.476H70.9275V93.652C70.9275 94.02 71.0235 94.308 71.2155 94.516C71.4235 94.708 71.6875 94.804 72.0075 94.804C72.3275 94.804 72.6555 94.708 72.9915 94.516L73.2555 97.852C72.9035 98.124 72.4395 98.332 71.8635 98.476C71.3035 98.62 70.7195 98.692 70.1115 98.692ZM68.3835 84.676C67.6315 84.676 66.9915 84.444 66.4635 83.98C65.9515 83.5 65.6955 82.916 65.6955 82.228C65.6955 81.54 65.9675 80.964 66.5115 80.5C67.0555 80.036 67.6795 79.804 68.3835 79.804C69.1195 79.804 69.7515 80.044 70.2795 80.524C70.8235 81.004 71.0955 81.572 71.0955 82.228C71.0955 82.932 70.8235 83.516 70.2795 83.98C69.7355 84.444 69.1035 84.676 68.3835 84.676ZM80.5811 98.692C79.3011 98.692 78.1651 98.436 77.1731 97.924C76.1971 97.396 75.4291 96.66 74.8691 95.716C74.3251 94.772 74.0531 93.7 74.0531 92.5C74.0531 91.348 74.3411 90.3 74.9171 89.356C75.4931 88.412 76.2771 87.668 77.2691 87.124C78.2611 86.58 79.3651 86.308 80.5811 86.308C82.1331 86.308 83.3571 86.628 84.2531 87.268L83.7971 90.46C82.8851 90.188 82.1331 90.052 81.5411 90.052C80.7731 90.052 80.1651 90.276 79.7171 90.724C79.2691 91.156 79.0451 91.748 79.0451 92.5C79.0451 93.252 79.2691 93.852 79.7171 94.3C80.1651 94.748 80.7571 94.972 81.4931 94.972C82.1331 94.972 82.8851 94.836 83.7491 94.564L84.2051 97.924C83.6611 98.196 83.1091 98.388 82.5491 98.5C81.9891 98.628 81.3331 98.692 80.5811 98.692ZM92.0488 98.692C90.7208 98.692 89.5368 98.428 88.4968 97.9C87.4728 97.356 86.6728 96.62 86.0968 95.692C85.5208 94.748 85.2328 93.684 85.2328 92.5C85.2328 91.284 85.5288 90.204 86.1208 89.26C86.7128 88.316 87.5128 87.588 88.5208 87.076C89.5288 86.564 90.6488 86.308 91.8808 86.308C93.0648 86.308 94.0728 86.572 94.9048 87.1C95.7528 87.612 96.3848 88.316 96.8008 89.212C97.2168 90.092 97.4248 91.084 97.4248 92.188C97.4248 92.476 97.4088 92.684 97.3768 92.812L90.1768 93.748C90.3688 94.308 90.6808 94.716 91.1128 94.972C91.5448 95.212 92.1128 95.332 92.8168 95.332C93.9048 95.332 95.0808 95.052 96.3448 94.492L96.9448 97.708C95.4568 98.364 93.8248 98.692 92.0488 98.692ZM93.7048 90.724C93.4488 89.716 92.8408 89.212 91.8808 89.212C91.3048 89.212 90.8488 89.428 90.5128 89.86C90.1768 90.292 90.0008 90.852 89.9848 91.54L93.7048 90.724Z" fill="#52300B"/>
<path d="M32.0633 94.972V94.472H31.5633V94.972H32.0633ZM34.0793 94.972V95.472H34.5793V94.972H34.0793ZM34.0793 86.98H34.5793V86.443L34.0436 86.4813L34.0793 86.98ZM32.0633 87.124H31.5633V87.661L32.0989 87.6227L32.0633 87.124ZM32.0633 84.004V83.504H31.5633V84.004H32.0633ZM34.3433 83.62L34.4929 84.0971L34.5014 84.0943L34.3433 83.62ZM36.7193 82.444V81.944H36.5679L36.4419 82.028L36.7193 82.444ZM39.2393 82.444H39.7393V81.944H39.2393V82.444ZM39.2393 94.972H38.7393V95.472H39.2393V94.972ZM41.2553 94.972H41.7553V94.472H41.2553V94.972ZM41.2553 98.5V99H41.7553V98.5H41.2553ZM32.0633 98.5H31.5633V99H32.0633V98.5ZM32.0633 95.472H34.0793V94.472H32.0633V95.472ZM34.5793 94.972V86.98H33.5793V94.972H34.5793ZM34.0436 86.4813L32.0276 86.6253L32.0989 87.6227L34.1149 87.4787L34.0436 86.4813ZM32.5633 87.124V84.004H31.5633V87.124H32.5633ZM32.0633 84.504C32.8275 84.504 33.6385 84.3651 34.4929 84.0971L34.1936 83.1429C33.416 83.3869 32.707 83.504 32.0633 83.504V84.504ZM34.5014 84.0943C35.3625 83.8073 36.1943 83.3949 36.9966 82.86L36.4419 82.028C35.7082 82.5171 34.956 82.8887 34.1851 83.1457L34.5014 84.0943ZM36.7193 82.944H39.2393V81.944H36.7193V82.944ZM38.7393 82.444V94.972H39.7393V82.444H38.7393ZM39.2393 95.472H41.2553V94.472H39.2393V95.472ZM40.7553 94.972V98.5H41.7553V94.972H40.7553ZM41.2553 98H32.0633V99H41.2553V98ZM32.5633 98.5V94.972H31.5633V98.5H32.5633ZM47.9194 81.988V81.488H47.4194V81.988H47.9194ZM59.6794 83.02L59.4494 83.464L59.4515 83.4651L59.6794 83.02ZM62.7994 85.9L62.3701 86.1564L62.3726 86.1605L62.7994 85.9ZM62.8234 94.516L62.3913 94.2644L62.3889 94.2685L62.8234 94.516ZM59.7274 97.468L59.9574 97.912L59.9594 97.9109L59.7274 97.468ZM47.9194 98.5H47.4194V99H47.9194V98.5ZM57.5914 93.052L57.2073 92.7319L57.2066 92.7327L57.5914 93.052ZM57.6154 87.34L57.2406 87.6712L57.249 87.6802L57.6154 87.34ZM53.2234 86.308V85.808H52.7234V86.308H53.2234ZM53.2234 94.18H52.7234V94.68H53.2234V94.18ZM47.9194 82.488H55.0954V81.488H47.9194V82.488ZM55.0954 82.488C56.7558 82.488 58.2028 82.8181 59.4494 83.464L59.9094 82.576C58.5 81.8459 56.8909 81.488 55.0954 81.488V82.488ZM59.4515 83.4651C60.7166 84.1127 61.6848 85.0092 62.3701 86.1564L63.2286 85.6436C62.4419 84.3268 61.3302 83.3033 59.9072 82.5749L59.4515 83.4651ZM62.3726 86.1605C63.0721 87.3065 63.4274 88.6227 63.4274 90.124H64.4274C64.4274 88.4573 64.0306 86.9575 63.2262 85.6395L62.3726 86.1605ZM63.4274 90.124C63.4274 91.712 63.077 93.0868 62.3913 94.2644L63.2555 94.7676C64.0418 93.4172 64.4274 91.864 64.4274 90.124H63.4274ZM62.3889 94.2685C61.7184 95.4457 60.7584 96.3635 59.4954 97.0251L59.9594 97.9109C61.3843 97.1645 62.4884 96.1143 63.2578 94.7635L62.3889 94.2685ZM59.4974 97.024C58.252 97.6692 56.7895 98 55.0954 98V99C56.9213 99 58.5467 98.6428 59.9574 97.912L59.4974 97.024ZM55.0954 98H47.9194V99H55.0954V98ZM48.4194 98.5V81.988H47.4194V98.5H48.4194ZM54.8554 94.68C56.167 94.68 57.2357 94.2636 57.9762 93.3713L57.2066 92.7327C56.699 93.3444 55.9438 93.68 54.8554 93.68V94.68ZM57.9755 93.3721C58.7056 92.4959 59.0514 91.3827 59.0514 90.076H58.0514C58.0514 91.2013 57.7571 92.0721 57.2073 92.7319L57.9755 93.3721ZM59.0514 90.076C59.0514 88.8315 58.7121 87.7863 57.9818 86.9998L57.249 87.6802C57.7666 88.2377 58.0514 89.0165 58.0514 90.076H59.0514ZM57.99 87.0089C57.2577 86.1801 56.1792 85.808 54.8554 85.808V86.808C55.9956 86.808 56.7571 87.1239 57.2407 87.6711L57.99 87.0089ZM54.8554 85.808H53.2234V86.808H54.8554V85.808ZM52.7234 86.308V94.18H53.7234V86.308H52.7234ZM53.2234 94.68H54.8554V93.68H53.2234V94.68ZM66.9675 97.396L67.3447 97.0677L66.9675 97.396ZM65.8395 86.476V85.976H65.3395V86.476H65.8395ZM70.9275 86.476H71.4275V85.976H70.9275V86.476ZM71.2155 94.516L70.8481 94.8551L70.8617 94.8698L70.8764 94.8834L71.2155 94.516ZM72.9915 94.516L73.4899 94.4766L73.4278 93.6908L72.7434 94.0819L72.9915 94.516ZM73.2555 97.852L73.5612 98.2476L73.7753 98.0822L73.7539 97.8126L73.2555 97.852ZM71.8635 98.476L71.7422 97.9909L71.739 97.9918L71.8635 98.476ZM66.4635 83.98L66.1215 84.3448L66.1274 84.3503L66.1334 84.3556L66.4635 83.98ZM66.5115 80.5L66.187 80.1196V80.1196L66.5115 80.5ZM70.2795 80.524L69.9431 80.894L69.9487 80.8989L70.2795 80.524ZM70.2795 83.98L69.955 83.5996L70.2795 83.98ZM70.1115 98.192C68.8845 98.192 67.9849 97.8034 67.3447 97.0677L66.5903 97.7243C67.4541 98.7166 68.6505 99.192 70.1115 99.192V98.192ZM67.3447 97.0677C66.6931 96.3192 66.3395 95.2722 66.3395 93.868H65.3395C65.3395 95.4398 65.7379 96.7448 66.5903 97.7243L67.3447 97.0677ZM66.3395 93.868V86.476H65.3395V93.868H66.3395ZM65.8395 86.976H70.9275V85.976H65.8395V86.976ZM70.4275 86.476V93.652H71.4275V86.476H70.4275ZM70.4275 93.652C70.4275 94.1069 70.5477 94.5297 70.8481 94.8551L71.5829 94.1769C71.4993 94.0863 71.4275 93.9331 71.4275 93.652H70.4275ZM70.8764 94.8834C71.1889 95.1719 71.5795 95.304 72.0075 95.304V94.304C71.7955 94.304 71.6581 94.2441 71.5546 94.1486L70.8764 94.8834ZM72.0075 95.304C72.431 95.304 72.8438 95.1763 73.2396 94.9501L72.7434 94.0819C72.4672 94.2397 72.224 94.304 72.0075 94.304V95.304ZM72.4931 94.5554L72.7571 97.8914L73.7539 97.8126L73.4899 94.4766L72.4931 94.5554ZM72.9498 97.4564C72.6674 97.6745 72.2725 97.8584 71.7422 97.9909L71.9848 98.9611C72.6065 98.8056 73.1396 98.5735 73.5612 98.2476L72.9498 97.4564ZM71.739 97.9918C71.2217 98.1248 70.6797 98.192 70.1115 98.192V99.192C70.7593 99.192 71.3853 99.1152 71.988 98.9602L71.739 97.9918ZM68.3835 84.176C67.7438 84.176 67.2236 83.9823 66.7936 83.6044L66.1334 84.3556C66.7594 84.9057 67.5192 85.176 68.3835 85.176V84.176ZM66.8055 83.6152C66.392 83.2276 66.1955 82.7747 66.1955 82.228H65.1955C65.1955 83.0573 65.511 83.7724 66.1215 84.3448L66.8055 83.6152ZM66.1955 82.228C66.1955 81.6928 66.3983 81.2537 66.836 80.8804L66.187 80.1196C65.5367 80.6743 65.1955 81.3872 65.1955 82.228H66.1955ZM66.836 80.8804C67.291 80.4923 67.8005 80.304 68.3835 80.304V79.304C67.5585 79.304 66.82 79.5797 66.187 80.1196L66.836 80.8804ZM68.3835 80.304C68.9994 80.304 69.5103 80.5005 69.9432 80.894L70.6158 80.154C69.9927 79.5875 69.2396 79.304 68.3835 79.304V80.304ZM69.9487 80.8989C70.3979 81.2953 70.5955 81.7316 70.5955 82.228H71.5955C71.5955 81.4124 71.2491 80.7127 70.6103 80.1491L69.9487 80.8989ZM70.5955 82.228C70.5955 82.783 70.3897 83.2289 69.955 83.5996L70.604 84.3604C71.2573 83.8031 71.5955 83.081 71.5955 82.228H70.5955ZM69.955 83.5996C69.5022 83.9858 68.9855 84.176 68.3835 84.176V85.176C69.2215 85.176 69.9688 84.9022 70.604 84.3604L69.955 83.5996ZM77.1731 97.924L76.9352 98.3639L76.9438 98.3683L77.1731 97.924ZM74.8691 95.716L74.4359 95.9657L74.4391 95.9711L74.8691 95.716ZM74.9171 89.356L75.3439 89.6164L74.9171 89.356ZM77.2691 87.124L77.0287 86.6856L77.2691 87.124ZM84.2531 87.268L84.7481 87.3387L84.7911 87.0378L84.5437 86.8611L84.2531 87.268ZM83.7971 90.46L83.6542 90.9391L84.2101 91.1049L84.2921 90.5307L83.7971 90.46ZM79.7171 90.724L80.0643 91.084L80.0707 91.0776L79.7171 90.724ZM79.7171 94.3L80.0707 93.9464L79.7171 94.3ZM83.7491 94.564L84.2446 94.4968L84.1648 93.9089L83.599 94.0871L83.7491 94.564ZM84.2051 97.924L84.4287 98.3712L84.7487 98.2112L84.7006 97.8568L84.2051 97.924ZM82.5491 98.5L82.451 98.0095L82.4377 98.0126L82.5491 98.5ZM80.5811 98.192C79.3691 98.192 78.3138 97.9501 77.4024 97.4797L76.9438 98.3683C78.0165 98.9219 79.2331 99.192 80.5811 99.192V98.192ZM77.411 97.4842C76.5137 96.9988 75.8125 96.3262 75.2992 95.4609L74.4391 95.9711C75.0458 96.9938 75.8806 97.7932 76.9352 98.3638L77.411 97.4842ZM75.3023 95.4664C74.8064 94.6058 74.5531 93.6215 74.5531 92.5H73.5531C73.5531 93.7785 73.8438 94.9382 74.4359 95.9656L75.3023 95.4664ZM74.5531 92.5C74.5531 91.4359 74.8179 90.4786 75.3439 89.6164L74.4903 89.0956C73.8644 90.1214 73.5531 91.2601 73.5531 92.5H74.5531ZM75.3439 89.6164C75.8733 88.7488 76.5923 88.0654 77.5095 87.5624L77.0287 86.6856C75.9619 87.2706 75.1129 88.0752 74.4903 89.0956L75.3439 89.6164ZM77.5095 87.5624C78.4224 87.0618 79.4427 86.808 80.5811 86.808V85.808C79.2876 85.808 78.0999 86.0982 77.0287 86.6856L77.5095 87.5624ZM80.5811 86.808C82.0702 86.808 83.1797 87.1157 83.9625 87.6749L84.5437 86.8611C83.5346 86.1403 82.196 85.808 80.5811 85.808V86.808ZM83.7582 87.1973L83.3022 90.3893L84.2921 90.5307L84.7481 87.3387L83.7582 87.1973ZM83.94 89.9809C83.0062 89.7023 82.2017 89.552 81.5411 89.552V90.552C82.0645 90.552 82.7641 90.6737 83.6542 90.9391L83.94 89.9809ZM81.5411 89.552C80.6705 89.552 79.9246 89.8094 79.3636 90.3704L80.0707 91.0776C80.4056 90.7426 80.8757 90.552 81.5411 90.552V89.552ZM79.3701 90.3641C78.8044 90.9095 78.5451 91.6426 78.5451 92.5H79.5451C79.5451 91.8534 79.7338 91.4025 80.0642 91.0839L79.3701 90.3641ZM78.5451 92.5C78.5451 93.358 78.8045 94.0945 79.3636 94.6536L80.0707 93.9464C79.7337 93.6095 79.5451 93.146 79.5451 92.5H78.5451ZM79.3636 94.6536C79.9205 95.2105 80.6477 95.472 81.4931 95.472V94.472C80.8666 94.472 80.4097 94.2855 80.0707 93.9464L79.3636 94.6536ZM81.4931 95.472C82.2003 95.472 83.0051 95.3224 83.8993 95.0409L83.599 94.0871C82.7651 94.3496 82.0659 94.472 81.4931 94.472V95.472ZM83.2537 94.6312L83.7097 97.9912L84.7006 97.8568L84.2446 94.4968L83.2537 94.6312ZM83.9815 97.4768C83.4747 97.7302 82.9648 97.907 82.4511 98.0097L82.6472 98.9903C83.2535 98.869 83.8476 98.6618 84.4287 98.3712L83.9815 97.4768ZM82.4377 98.0126C81.9235 98.1301 81.3064 98.192 80.5811 98.192V99.192C81.3598 99.192 82.0548 99.1259 82.6605 98.9874L82.4377 98.0126ZM88.4968 97.9L88.2622 98.3416L88.2705 98.3458L88.4968 97.9ZM86.0968 95.692L85.67 95.9524L85.672 95.9557L86.0968 95.692ZM86.1208 89.26L85.6972 88.9944L86.1208 89.26ZM88.5208 87.076L88.7472 87.5218L88.5208 87.076ZM94.9048 87.1L94.6368 87.5223L94.6464 87.528L94.9048 87.1ZM96.8008 89.212L96.3473 89.4226L96.3488 89.4257L96.8008 89.212ZM97.3768 92.812L97.4413 93.3078L97.7792 93.2639L97.8619 92.9333L97.3768 92.812ZM90.1768 93.748L90.1124 93.2522L89.5053 93.3311L89.7038 93.9102L90.1768 93.748ZM91.1128 94.972L90.8578 95.4023L90.87 95.4091L91.1128 94.972ZM96.3448 94.492L96.8363 94.4003L96.7204 93.7787L96.1423 94.0349L96.3448 94.492ZM96.9448 97.708L97.1465 98.1655L97.509 98.0057L97.4363 97.6163L96.9448 97.708ZM93.7048 90.724L93.8119 91.2124L94.3166 91.1017L94.1894 90.6009L93.7048 90.724ZM89.9848 91.54L89.4849 91.5284L89.4701 92.1648L90.0919 92.0284L89.9848 91.54ZM92.0488 98.192C90.7885 98.192 89.6838 97.9419 88.7232 97.4542L88.2705 98.3458C89.3898 98.9141 90.6531 99.192 92.0488 99.192V98.192ZM88.7314 97.4584C87.7804 96.9532 87.0482 96.2766 86.5216 95.4283L85.672 95.9557C86.2975 96.9634 87.1652 97.7588 88.2622 98.3416L88.7314 97.4584ZM86.5236 95.4316C85.9989 94.5716 85.7328 93.5989 85.7328 92.5H84.7328C84.7328 93.7691 85.0427 94.9244 85.67 95.9524L86.5236 95.4316ZM85.7328 92.5C85.7328 91.3691 86.0069 90.3828 86.5444 89.5256L85.6972 88.9944C85.0508 90.0252 84.7328 91.1989 84.7328 92.5H85.7328ZM86.5444 89.5256C87.0875 88.6596 87.8188 87.9934 88.7472 87.5218L88.2944 86.6302C87.2068 87.1826 86.3381 87.9724 85.6972 88.9944L86.5444 89.5256ZM88.7472 87.5218C89.6789 87.0485 90.7203 86.808 91.8808 86.808V85.808C90.5773 85.808 89.3787 86.0795 88.2944 86.6302L88.7472 87.5218ZM91.8808 86.808C92.9892 86.808 93.8999 87.0544 94.6369 87.5222L95.1727 86.6778C94.2457 86.0896 93.1404 85.808 91.8808 85.808V86.808ZM94.6464 87.528C95.4094 87.9887 95.9734 88.6171 96.3473 89.4226L97.2543 89.0014C96.7963 88.0149 96.0962 87.2353 95.1632 86.672L94.6464 87.528ZM96.3488 89.4257C96.7292 90.2304 96.9248 91.148 96.9248 92.188H97.9248C97.9248 91.02 97.7044 89.9536 97.2528 88.9983L96.3488 89.4257ZM96.9248 92.188C96.9248 92.4715 96.9078 92.6266 96.8917 92.6907L97.8619 92.9333C97.9099 92.7414 97.9248 92.4805 97.9248 92.188H96.9248ZM97.3124 92.3162L90.1124 93.2522L90.2413 94.2438L97.4413 93.3078L97.3124 92.3162ZM89.7038 93.9102C89.9271 94.5614 90.306 95.0751 90.8579 95.4021L91.3677 94.5419C91.0556 94.3569 90.8105 94.0546 90.6498 93.5858L89.7038 93.9102ZM90.87 95.4091C91.4012 95.7042 92.0618 95.832 92.8168 95.832V94.832C92.1638 94.832 91.6885 94.7198 91.3556 94.5349L90.87 95.4091ZM92.8168 95.832C93.9907 95.832 95.2362 95.53 96.5473 94.9491L96.1423 94.0349C94.9254 94.574 93.8189 94.832 92.8168 94.832V95.832ZM95.8533 94.5837L96.4533 97.7997L97.4363 97.6163L96.8363 94.4003L95.8533 94.5837ZM96.7431 97.2505C95.3243 97.876 93.7618 98.192 92.0488 98.192V99.192C93.8878 99.192 95.5893 98.852 97.1465 98.1655L96.7431 97.2505ZM94.1894 90.6009C94.0436 90.0266 93.7838 89.5432 93.3759 89.2051C92.964 88.8636 92.4513 88.712 91.8808 88.712V89.712C92.2704 89.712 92.5416 89.8124 92.7377 89.9749C92.9378 90.1408 93.11 90.4134 93.2202 90.8471L94.1894 90.6009ZM91.8808 88.712C91.1599 88.712 90.5545 88.992 90.1181 89.553L90.9075 90.167C91.1431 89.864 91.4497 89.712 91.8808 89.712V88.712ZM90.1181 89.553C89.701 90.0893 89.5028 90.7611 89.4849 91.5284L90.4847 91.5516C90.4988 90.9429 90.6526 90.4947 90.9075 90.167L90.1181 89.553ZM90.0919 92.0284L93.8119 91.2124L93.5977 90.2356L89.8777 91.0516L90.0919 92.0284Z" fill="#52300B"/>
<path d="M32.0633 93.472H34.0793V85.48L32.0633 85.624V82.504C32.7673 82.504 33.5273 82.376 34.3433 82.12C35.1593 81.848 35.9513 81.456 36.7193 80.944H39.2393V93.472H41.2553V97H32.0633V93.472ZM47.9194 80.488H55.0954C56.8234 80.488 58.3514 80.832 59.6794 81.52C61.0234 82.208 62.0634 83.168 62.7994 84.4C63.5514 85.632 63.9274 87.04 63.9274 88.624C63.9274 90.288 63.5594 91.752 62.8234 93.016C62.1034 94.28 61.0714 95.264 59.7274 95.968C58.3994 96.656 56.8554 97 55.0954 97H47.9194V80.488ZM54.8554 92.68C56.0554 92.68 56.9674 92.304 57.5914 91.552C58.2314 90.784 58.5514 89.792 58.5514 88.576C58.5514 87.424 58.2394 86.512 57.6154 85.84C57.0074 85.152 56.0874 84.808 54.8554 84.808H53.2234V92.68H54.8554ZM70.1115 97.192C68.7675 97.192 67.7195 96.76 66.9675 95.896C66.2155 95.032 65.8395 93.856 65.8395 92.368V84.976H70.9275V92.152C70.9275 92.52 71.0235 92.808 71.2155 93.016C71.4235 93.208 71.6875 93.304 72.0075 93.304C72.3275 93.304 72.6555 93.208 72.9915 93.016L73.2555 96.352C72.9035 96.624 72.4395 96.832 71.8635 96.976C71.3035 97.12 70.7195 97.192 70.1115 97.192ZM68.3835 83.176C67.6315 83.176 66.9915 82.944 66.4635 82.48C65.9515 82 65.6955 81.416 65.6955 80.728C65.6955 80.04 65.9675 79.464 66.5115 79C67.0555 78.536 67.6795 78.304 68.3835 78.304C69.1195 78.304 69.7515 78.544 70.2795 79.024C70.8235 79.504 71.0955 80.072 71.0955 80.728C71.0955 81.432 70.8235 82.016 70.2795 82.48C69.7355 82.944 69.1035 83.176 68.3835 83.176ZM80.5811 97.192C79.3011 97.192 78.1651 96.936 77.1731 96.424C76.1971 95.896 75.4291 95.16 74.8691 94.216C74.3251 93.272 74.0531 92.2 74.0531 91C74.0531 89.848 74.3411 88.8 74.9171 87.856C75.4931 86.912 76.2771 86.168 77.2691 85.624C78.2611 85.08 79.3651 84.808 80.5811 84.808C82.1331 84.808 83.3571 85.128 84.2531 85.768L83.7971 88.96C82.8851 88.688 82.1331 88.552 81.5411 88.552C80.7731 88.552 80.1651 88.776 79.7171 89.224C79.2691 89.656 79.0451 90.248 79.0451 91C79.0451 91.752 79.2691 92.352 79.7171 92.8C80.1651 93.248 80.7571 93.472 81.4931 93.472C82.1331 93.472 82.8851 93.336 83.7491 93.064L84.2051 96.424C83.6611 96.696 83.1091 96.888 82.5491 97C81.9891 97.128 81.3331 97.192 80.5811 97.192ZM92.0488 97.192C90.7208 97.192 89.5368 96.928 88.4968 96.4C87.4728 95.856 86.6728 95.12 86.0968 94.192C85.5208 93.248 85.2328 92.184 85.2328 91C85.2328 89.784 85.5288 88.704 86.1208 87.76C86.7128 86.816 87.5128 86.088 88.5208 85.576C89.5288 85.064 90.6488 84.808 91.8808 84.808C93.0648 84.808 94.0728 85.072 94.9048 85.6C95.7528 86.112 96.3848 86.816 96.8008 87.712C97.2168 88.592 97.4248 89.584 97.4248 90.688C97.4248 90.976 97.4088 91.184 97.3768 91.312L90.1768 92.248C90.3688 92.808 90.6808 93.216 91.1128 93.472C91.5448 93.712 92.1128 93.832 92.8168 93.832C93.9048 93.832 95.0808 93.552 96.3448 92.992L96.9448 96.208C95.4568 96.864 93.8248 97.192 92.0488 97.192ZM93.7048 89.224C93.4488 88.216 92.8408 87.712 91.8808 87.712C91.3048 87.712 90.8488 87.928 90.5128 88.36C90.1768 88.792 90.0008 89.352 89.9848 90.04L93.7048 89.224Z" fill="white"/>
<path d="M32.0633 93.472V92.972H31.5633V93.472H32.0633ZM34.0793 93.472V93.972H34.5793V93.472H34.0793ZM34.0793 85.48H34.5793V84.943L34.0436 84.9813L34.0793 85.48ZM32.0633 85.624H31.5633V86.161L32.0989 86.1227L32.0633 85.624ZM32.0633 82.504V82.004H31.5633V82.504H32.0633ZM34.3433 82.12L34.4929 82.5971L34.5014 82.5943L34.3433 82.12ZM36.7193 80.944V80.444H36.5679L36.4419 80.528L36.7193 80.944ZM39.2393 80.944H39.7393V80.444H39.2393V80.944ZM39.2393 93.472H38.7393V93.972H39.2393V93.472ZM41.2553 93.472H41.7553V92.972H41.2553V93.472ZM41.2553 97V97.5H41.7553V97H41.2553ZM32.0633 97H31.5633V97.5H32.0633V97ZM32.0633 93.972H34.0793V92.972H32.0633V93.972ZM34.5793 93.472V85.48H33.5793V93.472H34.5793ZM34.0436 84.9813L32.0276 85.1253L32.0989 86.1227L34.1149 85.9787L34.0436 84.9813ZM32.5633 85.624V82.504H31.5633V85.624H32.5633ZM32.0633 83.004C32.8275 83.004 33.6385 82.8651 34.4929 82.5971L34.1936 81.6429C33.416 81.8869 32.707 82.004 32.0633 82.004V83.004ZM34.5014 82.5943C35.3625 82.3073 36.1943 81.8949 36.9966 81.36L36.4419 80.528C35.7082 81.0171 34.956 81.3887 34.1851 81.6457L34.5014 82.5943ZM36.7193 81.444H39.2393V80.444H36.7193V81.444ZM38.7393 80.944V93.472H39.7393V80.944H38.7393ZM39.2393 93.972H41.2553V92.972H39.2393V93.972ZM40.7553 93.472V97H41.7553V93.472H40.7553ZM41.2553 96.5H32.0633V97.5H41.2553V96.5ZM32.5633 97V93.472H31.5633V97H32.5633ZM47.9194 80.488V79.988H47.4194V80.488H47.9194ZM59.6794 81.52L59.4494 81.964L59.4515 81.9651L59.6794 81.52ZM62.7994 84.4L62.3701 84.6564L62.3726 84.6605L62.7994 84.4ZM62.8234 93.016L62.3913 92.7644L62.3889 92.7685L62.8234 93.016ZM59.7274 95.968L59.9574 96.412L59.9594 96.4109L59.7274 95.968ZM47.9194 97H47.4194V97.5H47.9194V97ZM57.5914 91.552L57.2073 91.2319L57.2066 91.2327L57.5914 91.552ZM57.6154 85.84L57.2406 86.1712L57.249 86.1802L57.6154 85.84ZM53.2234 84.808V84.308H52.7234V84.808H53.2234ZM53.2234 92.68H52.7234V93.18H53.2234V92.68ZM47.9194 80.988H55.0954V79.988H47.9194V80.988ZM55.0954 80.988C56.7558 80.988 58.2028 81.3181 59.4494 81.964L59.9094 81.076C58.5 80.3459 56.8909 79.988 55.0954 79.988V80.988ZM59.4515 81.9651C60.7166 82.6127 61.6848 83.5092 62.3701 84.6564L63.2286 84.1436C62.4419 82.8268 61.3302 81.8033 59.9072 81.0749L59.4515 81.9651ZM62.3726 84.6605C63.0721 85.8065 63.4274 87.1227 63.4274 88.624H64.4274C64.4274 86.9573 64.0306 85.4575 63.2262 84.1395L62.3726 84.6605ZM63.4274 88.624C63.4274 90.212 63.077 91.5868 62.3913 92.7644L63.2555 93.2676C64.0418 91.9172 64.4274 90.364 64.4274 88.624H63.4274ZM62.3889 92.7685C61.7184 93.9457 60.7584 94.8635 59.4954 95.5251L59.9594 96.4109C61.3843 95.6645 62.4884 94.6143 63.2578 93.2635L62.3889 92.7685ZM59.4974 95.524C58.252 96.1692 56.7895 96.5 55.0954 96.5V97.5C56.9213 97.5 58.5467 97.1428 59.9574 96.412L59.4974 95.524ZM55.0954 96.5H47.9194V97.5H55.0954V96.5ZM48.4194 97V80.488H47.4194V97H48.4194ZM54.8554 93.18C56.167 93.18 57.2357 92.7636 57.9762 91.8713L57.2066 91.2327C56.699 91.8444 55.9438 92.18 54.8554 92.18V93.18ZM57.9755 91.8721C58.7056 90.9959 59.0514 89.8827 59.0514 88.576H58.0514C58.0514 89.7013 57.7571 90.5721 57.2073 91.2319L57.9755 91.8721ZM59.0514 88.576C59.0514 87.3315 58.7121 86.2863 57.9818 85.4998L57.249 86.1802C57.7666 86.7377 58.0514 87.5165 58.0514 88.576H59.0514ZM57.99 85.5089C57.2577 84.6801 56.1792 84.308 54.8554 84.308V85.308C55.9956 85.308 56.7571 85.6239 57.2407 86.1711L57.99 85.5089ZM54.8554 84.308H53.2234V85.308H54.8554V84.308ZM52.7234 84.808V92.68H53.7234V84.808H52.7234ZM53.2234 93.18H54.8554V92.18H53.2234V93.18ZM66.9675 95.896L67.3447 95.5677L66.9675 95.896ZM65.8395 84.976V84.476H65.3395V84.976H65.8395ZM70.9275 84.976H71.4275V84.476H70.9275V84.976ZM71.2155 93.016L70.8481 93.3551L70.8617 93.3698L70.8764 93.3834L71.2155 93.016ZM72.9915 93.016L73.4899 92.9766L73.4278 92.1908L72.7434 92.5819L72.9915 93.016ZM73.2555 96.352L73.5612 96.7476L73.7753 96.5822L73.7539 96.3126L73.2555 96.352ZM71.8635 96.976L71.7422 96.4909L71.739 96.4918L71.8635 96.976ZM66.4635 82.48L66.1215 82.8448L66.1274 82.8503L66.1334 82.8556L66.4635 82.48ZM66.5115 79L66.187 78.6196V78.6196L66.5115 79ZM70.2795 79.024L69.9431 79.394L69.9487 79.3989L70.2795 79.024ZM70.2795 82.48L69.955 82.0996L70.2795 82.48ZM70.1115 96.692C68.8845 96.692 67.9849 96.3034 67.3447 95.5677L66.5903 96.2243C67.4541 97.2166 68.6505 97.692 70.1115 97.692V96.692ZM67.3447 95.5677C66.6931 94.8192 66.3395 93.7722 66.3395 92.368H65.3395C65.3395 93.9398 65.7379 95.2448 66.5903 96.2243L67.3447 95.5677ZM66.3395 92.368V84.976H65.3395V92.368H66.3395ZM65.8395 85.476H70.9275V84.476H65.8395V85.476ZM70.4275 84.976V92.152H71.4275V84.976H70.4275ZM70.4275 92.152C70.4275 92.6069 70.5477 93.0297 70.8481 93.3551L71.5829 92.6769C71.4993 92.5863 71.4275 92.4331 71.4275 92.152H70.4275ZM70.8764 93.3834C71.1889 93.6719 71.5795 93.804 72.0075 93.804V92.804C71.7955 92.804 71.6581 92.7441 71.5546 92.6486L70.8764 93.3834ZM72.0075 93.804C72.431 93.804 72.8438 93.6763 73.2396 93.4501L72.7434 92.5819C72.4672 92.7397 72.224 92.804 72.0075 92.804V93.804ZM72.4931 93.0554L72.7571 96.3914L73.7539 96.3126L73.4899 92.9766L72.4931 93.0554ZM72.9498 95.9564C72.6674 96.1745 72.2725 96.3584 71.7422 96.4909L71.9848 97.4611C72.6065 97.3056 73.1396 97.0735 73.5612 96.7476L72.9498 95.9564ZM71.739 96.4918C71.2217 96.6248 70.6797 96.692 70.1115 96.692V97.692C70.7593 97.692 71.3853 97.6152 71.988 97.4602L71.739 96.4918ZM68.3835 82.676C67.7438 82.676 67.2236 82.4823 66.7936 82.1044L66.1334 82.8556C66.7594 83.4057 67.5192 83.676 68.3835 83.676V82.676ZM66.8055 82.1152C66.392 81.7276 66.1955 81.2747 66.1955 80.728H65.1955C65.1955 81.5573 65.511 82.2724 66.1215 82.8448L66.8055 82.1152ZM66.1955 80.728C66.1955 80.1928 66.3983 79.7537 66.836 79.3804L66.187 78.6196C65.5367 79.1743 65.1955 79.8872 65.1955 80.728H66.1955ZM66.836 79.3804C67.291 78.9923 67.8005 78.804 68.3835 78.804V77.804C67.5585 77.804 66.82 78.0797 66.187 78.6196L66.836 79.3804ZM68.3835 78.804C68.9994 78.804 69.5103 79.0005 69.9432 79.394L70.6158 78.654C69.9927 78.0875 69.2396 77.804 68.3835 77.804V78.804ZM69.9487 79.3989C70.3979 79.7953 70.5955 80.2316 70.5955 80.728H71.5955C71.5955 79.9124 71.2491 79.2127 70.6103 78.6491L69.9487 79.3989ZM70.5955 80.728C70.5955 81.283 70.3897 81.7289 69.955 82.0996L70.604 82.8604C71.2573 82.3031 71.5955 81.581 71.5955 80.728H70.5955ZM69.955 82.0996C69.5022 82.4858 68.9855 82.676 68.3835 82.676V83.676C69.2215 83.676 69.9688 83.4022 70.604 82.8604L69.955 82.0996ZM77.1731 96.424L76.9352 96.8639L76.9438 96.8683L77.1731 96.424ZM74.8691 94.216L74.4359 94.4657L74.4391 94.4711L74.8691 94.216ZM74.9171 87.856L75.3439 88.1164L74.9171 87.856ZM77.2691 85.624L77.0287 85.1856L77.2691 85.624ZM84.2531 85.768L84.7481 85.8387L84.7911 85.5378L84.5437 85.3611L84.2531 85.768ZM83.7971 88.96L83.6542 89.4391L84.2101 89.6049L84.2921 89.0307L83.7971 88.96ZM79.7171 89.224L80.0643 89.584L80.0707 89.5776L79.7171 89.224ZM79.7171 92.8L80.0707 92.4464L79.7171 92.8ZM83.7491 93.064L84.2446 92.9968L84.1648 92.4089L83.599 92.5871L83.7491 93.064ZM84.2051 96.424L84.4287 96.8712L84.7487 96.7112L84.7006 96.3568L84.2051 96.424ZM82.5491 97L82.451 96.5095L82.4377 96.5126L82.5491 97ZM80.5811 96.692C79.3691 96.692 78.3138 96.4501 77.4024 95.9797L76.9438 96.8683C78.0165 97.4219 79.2331 97.692 80.5811 97.692V96.692ZM77.411 95.9842C76.5137 95.4988 75.8125 94.8262 75.2992 93.9609L74.4391 94.4711C75.0458 95.4938 75.8806 96.2932 76.9352 96.8638L77.411 95.9842ZM75.3023 93.9664C74.8064 93.1058 74.5531 92.1215 74.5531 91H73.5531C73.5531 92.2785 73.8438 93.4382 74.4359 94.4656L75.3023 93.9664ZM74.5531 91C74.5531 89.9359 74.8179 88.9786 75.3439 88.1164L74.4903 87.5956C73.8644 88.6214 73.5531 89.7601 73.5531 91H74.5531ZM75.3439 88.1164C75.8733 87.2488 76.5923 86.5654 77.5095 86.0624L77.0287 85.1856C75.9619 85.7706 75.1129 86.5752 74.4903 87.5956L75.3439 88.1164ZM77.5095 86.0624C78.4224 85.5618 79.4427 85.308 80.5811 85.308V84.308C79.2876 84.308 78.0999 84.5982 77.0287 85.1856L77.5095 86.0624ZM80.5811 85.308C82.0702 85.308 83.1797 85.6157 83.9625 86.1749L84.5437 85.3611C83.5346 84.6403 82.196 84.308 80.5811 84.308V85.308ZM83.7582 85.6973L83.3022 88.8893L84.2921 89.0307L84.7481 85.8387L83.7582 85.6973ZM83.94 88.4809C83.0062 88.2023 82.2017 88.052 81.5411 88.052V89.052C82.0645 89.052 82.7641 89.1737 83.6542 89.4391L83.94 88.4809ZM81.5411 88.052C80.6705 88.052 79.9246 88.3094 79.3636 88.8704L80.0707 89.5776C80.4056 89.2426 80.8757 89.052 81.5411 89.052V88.052ZM79.3701 88.8641C78.8044 89.4095 78.5451 90.1426 78.5451 91H79.5451C79.5451 90.3534 79.7338 89.9025 80.0642 89.5839L79.3701 88.8641ZM78.5451 91C78.5451 91.858 78.8045 92.5945 79.3636 93.1536L80.0707 92.4464C79.7337 92.1095 79.5451 91.646 79.5451 91H78.5451ZM79.3636 93.1536C79.9205 93.7105 80.6477 93.972 81.4931 93.972V92.972C80.8666 92.972 80.4097 92.7855 80.0707 92.4464L79.3636 93.1536ZM81.4931 93.972C82.2003 93.972 83.0051 93.8224 83.8993 93.5409L83.599 92.5871C82.7651 92.8496 82.0659 92.972 81.4931 92.972V93.972ZM83.2537 93.1312L83.7097 96.4912L84.7006 96.3568L84.2446 92.9968L83.2537 93.1312ZM83.9815 95.9768C83.4747 96.2302 82.9648 96.407 82.4511 96.5097L82.6472 97.4903C83.2535 97.369 83.8476 97.1618 84.4287 96.8712L83.9815 95.9768ZM82.4377 96.5126C81.9235 96.6301 81.3064 96.692 80.5811 96.692V97.692C81.3598 97.692 82.0548 97.6259 82.6605 97.4874L82.4377 96.5126ZM88.4968 96.4L88.2622 96.8416L88.2705 96.8458L88.4968 96.4ZM86.0968 94.192L85.67 94.4524L85.672 94.4557L86.0968 94.192ZM86.1208 87.76L85.6972 87.4944L86.1208 87.76ZM88.5208 85.576L88.7472 86.0218L88.5208 85.576ZM94.9048 85.6L94.6368 86.0223L94.6464 86.028L94.9048 85.6ZM96.8008 87.712L96.3473 87.9226L96.3488 87.9257L96.8008 87.712ZM97.3768 91.312L97.4413 91.8078L97.7792 91.7639L97.8619 91.4333L97.3768 91.312ZM90.1768 92.248L90.1124 91.7522L89.5053 91.8311L89.7038 92.4102L90.1768 92.248ZM91.1128 93.472L90.8578 93.9023L90.87 93.9091L91.1128 93.472ZM96.3448 92.992L96.8363 92.9003L96.7204 92.2787L96.1423 92.5349L96.3448 92.992ZM96.9448 96.208L97.1465 96.6655L97.509 96.5057L97.4363 96.1163L96.9448 96.208ZM93.7048 89.224L93.8119 89.7124L94.3166 89.6017L94.1894 89.1009L93.7048 89.224ZM89.9848 90.04L89.4849 90.0284L89.4701 90.6648L90.0919 90.5284L89.9848 90.04ZM92.0488 96.692C90.7885 96.692 89.6838 96.4419 88.7232 95.9542L88.2705 96.8458C89.3898 97.4141 90.6531 97.692 92.0488 97.692V96.692ZM88.7314 95.9584C87.7804 95.4532 87.0482 94.7766 86.5216 93.9283L85.672 94.4557C86.2975 95.4634 87.1652 96.2588 88.2622 96.8416L88.7314 95.9584ZM86.5236 93.9316C85.9989 93.0716 85.7328 92.0989 85.7328 91H84.7328C84.7328 92.2691 85.0427 93.4244 85.67 94.4524L86.5236 93.9316ZM85.7328 91C85.7328 89.8691 86.0069 88.8828 86.5444 88.0256L85.6972 87.4944C85.0508 88.5252 84.7328 89.6989 84.7328 91H85.7328ZM86.5444 88.0256C87.0875 87.1596 87.8188 86.4934 88.7472 86.0218L88.2944 85.1302C87.2068 85.6826 86.3381 86.4724 85.6972 87.4944L86.5444 88.0256ZM88.7472 86.0218C89.6789 85.5485 90.7203 85.308 91.8808 85.308V84.308C90.5773 84.308 89.3787 84.5795 88.2944 85.1302L88.7472 86.0218ZM91.8808 85.308C92.9892 85.308 93.8999 85.5544 94.6369 86.0222L95.1727 85.1778C94.2457 84.5896 93.1404 84.308 91.8808 84.308V85.308ZM94.6464 86.028C95.4094 86.4887 95.9734 87.1171 96.3473 87.9226L97.2543 87.5014C96.7963 86.5149 96.0962 85.7353 95.1632 85.172L94.6464 86.028ZM96.3488 87.9257C96.7292 88.7304 96.9248 89.648 96.9248 90.688H97.9248C97.9248 89.52 97.7044 88.4536 97.2528 87.4983L96.3488 87.9257ZM96.9248 90.688C96.9248 90.9715 96.9078 91.1266 96.8917 91.1907L97.8619 91.4333C97.9099 91.2414 97.9248 90.9805 97.9248 90.688H96.9248ZM97.3124 90.8162L90.1124 91.7522L90.2413 92.7438L97.4413 91.8078L97.3124 90.8162ZM89.7038 92.4102C89.9271 93.0614 90.306 93.5751 90.8579 93.9021L91.3677 93.0419C91.0556 92.8569 90.8105 92.5546 90.6498 92.0858L89.7038 92.4102ZM90.87 93.9091C91.4012 94.2042 92.0618 94.332 92.8168 94.332V93.332C92.1638 93.332 91.6885 93.2198 91.3556 93.0349L90.87 93.9091ZM92.8168 94.332C93.9907 94.332 95.2362 94.03 96.5473 93.4491L96.1423 92.5349C94.9254 93.074 93.8189 93.332 92.8168 93.332V94.332ZM95.8533 93.0837L96.4533 96.2997L97.4363 96.1163L96.8363 92.9003L95.8533 93.0837ZM96.7431 95.7505C95.3243 96.376 93.7618 96.692 92.0488 96.692V97.692C93.8878 97.692 95.5893 97.352 97.1465 96.6655L96.7431 95.7505ZM94.1894 89.1009C94.0436 88.5266 93.7838 88.0432 93.3759 87.7051C92.964 87.3636 92.4513 87.212 91.8808 87.212V88.212C92.2704 88.212 92.5416 88.3124 92.7377 88.4749C92.9378 88.6408 93.11 88.9134 93.2202 89.3471L94.1894 89.1009ZM91.8808 87.212C91.1599 87.212 90.5545 87.492 90.1181 88.053L90.9075 88.667C91.1431 88.364 91.4497 88.212 91.8808 88.212V87.212ZM90.1181 88.053C89.701 88.5893 89.5028 89.2611 89.4849 90.0284L90.4847 90.0516C90.4988 89.4429 90.6526 88.9947 90.9075 88.667L90.1181 88.053ZM90.0919 90.5284L93.8119 89.7124L93.5977 88.7356L89.8777 89.5516L90.0919 90.5284Z" fill="#52300B"/>
<defs>
<filter id="filter0_f_4531_26265" x="0.75" y="0.75" width="126.5" height="138.5" filterUnits="userSpaceOnUse" color-interpolation-filters="sRGB">
<feFlood flood-opacity="0" result="BackgroundImageFix"/>
<feBlend mode="normal" in="SourceGraphic" in2="BackgroundImageFix" result="shape"/>
<feGaussianBlur stdDeviation="1.125" result="effect1_foregroundBlur_4531_26265"/>
</filter>
<filter id="filter1_di_4531_26265" x="-1" y="2" width="130" height="130" filterUnits="userSpaceOnUse" color-interpolation-filters="sRGB">
<feFlood flood-opacity="0" result="BackgroundImageFix"/>
<feColorMatrix in="SourceAlpha" type="matrix" values="0 0 0 0 0 0 0 0 0 0 0 0 0 0 0 0 0 0 127 0" result="hardAlpha"/>
<feOffset dy="4"/>
<feGaussianBlur stdDeviation="2"/>
<feComposite in2="hardAlpha" operator="out"/>
<feColorMatrix type="matrix" values="0 0 0 0 0 0 0 0 0 0 0 0 0 0 0 0 0 0 0.05 0"/>
<feBlend mode="normal" in2="BackgroundImageFix" result="effect1_dropShadow_4531_26265"/>
<feBlend mode="normal" in="SourceGraphic" in2="effect1_dropShadow_4531_26265" result="shape"/>
<feColorMatrix in="SourceAlpha" type="matrix" values="0 0 0 0 0 0 0 0 0 0 0 0 0 0 0 0 0 0 127 0" result="hardAlpha"/>
<feOffset/>
<feGaussianBlur stdDeviation="24"/>
<feComposite in2="hardAlpha" operator="arithmetic" k2="-1" k3="1"/>
<feColorMatrix type="matrix" values="0 0 0 0 1 0 0 0 0 0.878431 0 0 0 0 0.317647 0 0 0 1 0"/>
<feBlend mode="normal" in2="shape" result="effect2_innerShadow_4531_26265"/>
</filter>
<filter id="filter2_i_4531_26265" x="3" y="2" width="122" height="122" filterUnits="userSpaceOnUse" color-interpolation-filters="sRGB">
<feFlood flood-opacity="0" result="BackgroundImageFix"/>
<feBlend mode="normal" in="SourceGraphic" in2="BackgroundImageFix" result="shape"/>
<feColorMatrix in="SourceAlpha" type="matrix" values="0 0 0 0 0 0 0 0 0 0 0 0 0 0 0 0 0 0 127 0" result="hardAlpha"/>
<feOffset dy="-1.5"/>
<feComposite in2="hardAlpha" operator="arithmetic" k2="-1" k3="1"/>
<feColorMatrix type="matrix" values="0 0 0 0 1 0 0 0 0 0.752941 0 0 0 0 0.192157 0 0 0 1 0"/>
<feBlend mode="normal" in2="shape" result="effect1_innerShadow_4531_26265"/>
</filter>
<filter id="filter3_d_4531_26265" x="6" y="5.5" width="116" height="118" filterUnits="userSpaceOnUse" color-interpolation-filters="sRGB">
<feFlood flood-opacity="0" result="BackgroundImageFix"/>
<feColorMatrix in="SourceAlpha" type="matrix" values="0 0 0 0 0 0 0 0 0 0 0 0 0 0 0 0 0 0 127 0" result="hardAlpha"/>
<feOffset dy="1.5"/>
<feGaussianBlur stdDeviation="1.5"/>
<feComposite in2="hardAlpha" operator="out"/>
<feColorMatrix type="matrix" values="0 0 0 0 0.95 0 0 0 0 0.513 0 0 0 0 0 0 0 0 1 0"/>
<feBlend mode="normal" in2="BackgroundImageFix" result="effect1_dropShadow_4531_26265"/>
<feBlend mode="normal" in="SourceGraphic" in2="effect1_dropShadow_4531_26265" result="shape"/>
</filter>
<filter id="filter4_i_4531_26265" x="9" y="2" width="110" height="116.5" filterUnits="userSpaceOnUse" color-interpolation-filters="sRGB">
<feFlood flood-opacity="0" result="BackgroundImageFix"/>
<feBlend mode="normal" in="SourceGraphic" in2="BackgroundImageFix" result="shape"/>
<feColorMatrix in="SourceAlpha" type="matrix" values="0 0 0 0 0 0 0 0 0 0 0 0 0 0 0 0 0 0 127 0" result="hardAlpha"/>
<feOffset dy="3"/>
<feGaussianBlur stdDeviation="0.75"/>
<feComposite in2="hardAlpha" operator="arithmetic" k2="-1" k3="1"/>
<feColorMatrix type="matrix" values="0 0 0 0 1 0 0 0 0 0.878431 0 0 0 0 0.317647 0 0 0 1 0"/>
<feBlend mode="normal" in2="shape" result="effect1_innerShadow_4531_26265"/>
</filter>
<filter id="filter5_f_4531_26265" x="7" y="14" width="82.126" height="80" filterUnits="userSpaceOnUse" color-interpolation-filters="sRGB">
<feFlood flood-opacity="0" result="BackgroundImageFix"/>
<feBlend mode="normal" in="SourceGraphic" in2="BackgroundImageFix" result="shape"/>
<feGaussianBlur stdDeviation="6" result="effect1_foregroundBlur_4531_26265"/>
</filter>
<filter id="filter6_di_4531_26265" x="28" y="29.9391" width="32.6453" height="47.081" filterUnits="userSpaceOnUse" color-interpolation-filters="sRGB">
<feFlood flood-opacity="0" result="BackgroundImageFix"/>
<feColorMatrix in="SourceAlpha" type="matrix" values="0 0 0 0 0 0 0 0 0 0 0 0 0 0 0 0 0 0 127 0" result="hardAlpha"/>
<feOffset dx="-3"/>
<feGaussianBlur stdDeviation="2"/>
<feComposite in2="hardAlpha" operator="out"/>
<feColorMatrix type="matrix" values="0 0 0 0 1 0 0 0 0 1 0 0 0 0 1 0 0 0 0.25 0"/>
<feBlend mode="normal" in2="BackgroundImageFix" result="effect1_dropShadow_4531_26265"/>
<feBlend mode="normal" in="SourceGraphic" in2="effect1_dropShadow_4531_26265" result="shape"/>
<feColorMatrix in="SourceAlpha" type="matrix" values="0 0 0 0 0 0 0 0 0 0 0 0 0 0 0 0 0 0 127 0" result="hardAlpha"/>
<feOffset dx="-1" dy="1"/>
<feGaussianBlur stdDeviation="1"/>
<feComposite in2="hardAlpha" operator="arithmetic" k2="-1" k3="1"/>
<feColorMatrix type="matrix" values="0 0 0 0 0 0 0 0 0 0 0 0 0 0 0 0 0 0 0.02 0"/>
<feBlend mode="normal" in2="shape" result="effect2_innerShadow_4531_26265"/>
</filter>
<filter id="filter7_di_4531_26265" x="51.1685" y="41.9045" width="39.4503" height="36.0955" filterUnits="userSpaceOnUse" color-interpolation-filters="sRGB">
<feFlood flood-opacity="0" result="BackgroundImageFix"/>
<feColorMatrix in="SourceAlpha" type="matrix" values="0 0 0 0 0 0 0 0 0 0 0 0 0 0 0 0 0 0 127 0" result="hardAlpha"/>
<feOffset dx="-3"/>
<feGaussianBlur stdDeviation="2"/>
<feComposite in2="hardAlpha" operator="out"/>
<feColorMatrix type="matrix" values="0 0 0 0 1 0 0 0 0 1 0 0 0 0 1 0 0 0 0.25 0"/>
<feBlend mode="normal" in2="BackgroundImageFix" result="effect1_dropShadow_4531_26265"/>
<feBlend mode="normal" in="SourceGraphic" in2="effect1_dropShadow_4531_26265" result="shape"/>
<feColorMatrix in="SourceAlpha" type="matrix" values="0 0 0 0 0 0 0 0 0 0 0 0 0 0 0 0 0 0 127 0" result="hardAlpha"/>
<feOffset dx="-1" dy="1"/>
<feGaussianBlur stdDeviation="1"/>
<feComposite in2="hardAlpha" operator="arithmetic" k2="-1" k3="1"/>
<feColorMatrix type="matrix" values="0 0 0 0 0 0 0 0 0 0 0 0 0 0 0 0 0 0 0.02 0"/>
<feBlend mode="normal" in2="shape" result="effect2_innerShadow_4531_26265"/>
</filter>
<filter id="filter8_d_4531_26265" x="38.8774" y="12.1394" width="57.0377" height="40.653" filterUnits="userSpaceOnUse" color-interpolation-filters="sRGB">
<feFlood flood-opacity="0" result="BackgroundImageFix"/>
<feColorMatrix in="SourceAlpha" type="matrix" values="0 0 0 0 0 0 0 0 0 0 0 0 0 0 0 0 0 0 127 0" result="hardAlpha"/>
<feOffset/>
<feGaussianBlur stdDeviation="3.5"/>
<feComposite in2="hardAlpha" operator="out"/>
<feColorMatrix type="matrix" values="0 0 0 0 0.591667 0 0 0 0 0.398389 0 0 0 0 0.108472 0 0 0 0.1 0"/>
<feBlend mode="normal" in2="BackgroundImageFix" result="effect1_dropShadow_4531_26265"/>
<feBlend mode="normal" in="SourceGraphic" in2="effect1_dropShadow_4531_26265" result="shape"/>
</filter>
<filter id="filter9_di_4531_26265" x="50.4565" y="45.7682" width="9.63373" height="11.3545" filterUnits="userSpaceOnUse" color-interpolation-filters="sRGB">
<feFlood flood-opacity="0" result="BackgroundImageFix"/>
<feColorMatrix in="SourceAlpha" type="matrix" values="0 0 0 0 0 0 0 0 0 0 0 0 0 0 0 0 0 0 127 0" result="hardAlpha"/>
<feOffset dx="0.5" dy="-1"/>
<feGaussianBlur stdDeviation="1"/>
<feComposite in2="hardAlpha" operator="out"/>
<feColorMatrix type="matrix" values="0 0 0 0 0.966667 0 0 0 0 0.957 0 0 0 0 0.9425 0 0 0 0.6 0"/>
<feBlend mode="normal" in2="BackgroundImageFix" result="effect1_dropShadow_4531_26265"/>
<feBlend mode="normal" in="SourceGraphic" in2="effect1_dropShadow_4531_26265" result="shape"/>
<feColorMatrix in="SourceAlpha" type="matrix" values="0 0 0 0 0 0 0 0 0 0 0 0 0 0 0 0 0 0 127 0" result="hardAlpha"/>
<feOffset/>
<feGaussianBlur stdDeviation="0.25"/>
<feComposite in2="hardAlpha" operator="arithmetic" k2="-1" k3="1"/>
<feColorMatrix type="matrix" values="0 0 0 0 1 0 0 0 0 1 0 0 0 0 1 0 0 0 0.6 0"/>
<feBlend mode="normal" in2="shape" result="effect2_innerShadow_4531_26265"/>
</filter>
<filter id="filter10_i_4531_26265" x="52.4269" y="48.9516" width="5.34155" height="6.51901" filterUnits="userSpaceOnUse" color-interpolation-filters="sRGB">
<feFlood flood-opacity="0" result="BackgroundImageFix"/>
<feBlend mode="normal" in="SourceGraphic" in2="BackgroundImageFix" result="shape"/>
<feColorMatrix in="SourceAlpha" type="matrix" values="0 0 0 0 0 0 0 0 0 0 0 0 0 0 0 0 0 0 127 0" result="hardAlpha"/>
<feOffset/>
<feGaussianBlur stdDeviation="1"/>
<feComposite in2="hardAlpha" operator="arithmetic" k2="-1" k3="1"/>
<feColorMatrix type="matrix" values="0 0 0 0 1 0 0 0 0 1 0 0 0 0 1 0 0 0 0.25 0"/>
<feBlend mode="normal" in2="shape" result="effect1_innerShadow_4531_26265"/>
</filter>
<filter id="filter11_di_4531_26265" x="43.2286" y="46.064" width="9.63373" height="11.3545" filterUnits="userSpaceOnUse" color-interpolation-filters="sRGB">
<feFlood flood-opacity="0" result="BackgroundImageFix"/>
<feColorMatrix in="SourceAlpha" type="matrix" values="0 0 0 0 0 0 0 0 0 0 0 0 0 0 0 0 0 0 127 0" result="hardAlpha"/>
<feOffset dx="0.5" dy="-1"/>
<feGaussianBlur stdDeviation="1"/>
<feComposite in2="hardAlpha" operator="out"/>
<feColorMatrix type="matrix" values="0 0 0 0 0.966667 0 0 0 0 0.957 0 0 0 0 0.9425 0 0 0 0.6 0"/>
<feBlend mode="normal" in2="BackgroundImageFix" result="effect1_dropShadow_4531_26265"/>
<feBlend mode="normal" in="SourceGraphic" in2="effect1_dropShadow_4531_26265" result="shape"/>
<feColorMatrix in="SourceAlpha" type="matrix" values="0 0 0 0 0 0 0 0 0 0 0 0 0 0 0 0 0 0 127 0" result="hardAlpha"/>
<feOffset/>
<feGaussianBlur stdDeviation="0.25"/>
<feComposite in2="hardAlpha" operator="arithmetic" k2="-1" k3="1"/>
<feColorMatrix type="matrix" values="0 0 0 0 1 0 0 0 0 1 0 0 0 0 1 0 0 0 0.6 0"/>
<feBlend mode="normal" in2="shape" result="effect2_innerShadow_4531_26265"/>
</filter>
<filter id="filter12_i_4531_26265" x="45.1987" y="49.2474" width="5.34155" height="6.51901" filterUnits="userSpaceOnUse" color-interpolation-filters="sRGB">
<feFlood flood-opacity="0" result="BackgroundImageFix"/>
<feBlend mode="normal" in="SourceGraphic" in2="BackgroundImageFix" result="shape"/>
<feColorMatrix in="SourceAlpha" type="matrix" values="0 0 0 0 0 0 0 0 0 0 0 0 0 0 0 0 0 0 127 0" result="hardAlpha"/>
<feOffset/>
<feGaussianBlur stdDeviation="1"/>
<feComposite in2="hardAlpha" operator="arithmetic" k2="-1" k3="1"/>
<feColorMatrix type="matrix" values="0 0 0 0 1 0 0 0 0 1 0 0 0 0 1 0 0 0 0.25 0"/>
<feBlend mode="normal" in2="shape" result="effect1_innerShadow_4531_26265"/>
</filter>
<filter id="filter13_di_4531_26265" x="36.0006" y="46.4047" width="9.63373" height="11.3545" filterUnits="userSpaceOnUse" color-interpolation-filters="sRGB">
<feFlood flood-opacity="0" result="BackgroundImageFix"/>
<feColorMatrix in="SourceAlpha" type="matrix" values="0 0 0 0 0 0 0 0 0 0 0 0 0 0 0 0 0 0 127 0" result="hardAlpha"/>
<feOffset dx="0.5" dy="-1"/>
<feGaussianBlur stdDeviation="1"/>
<feComposite in2="hardAlpha" operator="out"/>
<feColorMatrix type="matrix" values="0 0 0 0 0.966667 0 0 0 0 0.957 0 0 0 0 0.9425 0 0 0 0.6 0"/>
<feBlend mode="normal" in2="BackgroundImageFix" result="effect1_dropShadow_4531_26265"/>
<feBlend mode="normal" in="SourceGraphic" in2="effect1_dropShadow_4531_26265" result="shape"/>
<feColorMatrix in="SourceAlpha" type="matrix" values="0 0 0 0 0 0 0 0 0 0 0 0 0 0 0 0 0 0 127 0" result="hardAlpha"/>
<feOffset/>
<feGaussianBlur stdDeviation="0.25"/>
<feComposite in2="hardAlpha" operator="arithmetic" k2="-1" k3="1"/>
<feColorMatrix type="matrix" values="0 0 0 0 1 0 0 0 0 1 0 0 0 0 1 0 0 0 0.6 0"/>
<feBlend mode="normal" in2="shape" result="effect2_innerShadow_4531_26265"/>
</filter>
<filter id="filter14_i_4531_26265" x="37.9707" y="49.5879" width="5.34155" height="6.51901" filterUnits="userSpaceOnUse" color-interpolation-filters="sRGB">
<feFlood flood-opacity="0" result="BackgroundImageFix"/>
<feBlend mode="normal" in="SourceGraphic" in2="BackgroundImageFix" result="shape"/>
<feColorMatrix in="SourceAlpha" type="matrix" values="0 0 0 0 0 0 0 0 0 0 0 0 0 0 0 0 0 0 127 0" result="hardAlpha"/>
<feOffset/>
<feGaussianBlur stdDeviation="1"/>
<feComposite in2="hardAlpha" operator="arithmetic" k2="-1" k3="1"/>
<feColorMatrix type="matrix" values="0 0 0 0 1 0 0 0 0 1 0 0 0 0 1 0 0 0 0.25 0"/>
<feBlend mode="normal" in2="shape" result="effect1_innerShadow_4531_26265"/>
</filter>
<filter id="filter15_di_4531_26265" x="76.7724" y="57.9786" width="9.4433" height="10.4942" filterUnits="userSpaceOnUse" color-interpolation-filters="sRGB">
<feFlood flood-opacity="0" result="BackgroundImageFix"/>
<feColorMatrix in="SourceAlpha" type="matrix" values="0 0 0 0 0 0 0 0 0 0 0 0 0 0 0 0 0 0 127 0" result="hardAlpha"/>
<feOffset dx="0.5" dy="-1"/>
<feGaussianBlur stdDeviation="1"/>
<feComposite in2="hardAlpha" operator="out"/>
<feColorMatrix type="matrix" values="0 0 0 0 0.966667 0 0 0 0 0.957 0 0 0 0 0.9425 0 0 0 0.6 0"/>
<feBlend mode="normal" in2="BackgroundImageFix" result="effect1_dropShadow_4531_26265"/>
<feBlend mode="normal" in="SourceGraphic" in2="effect1_dropShadow_4531_26265" result="shape"/>
<feColorMatrix in="SourceAlpha" type="matrix" values="0 0 0 0 0 0 0 0 0 0 0 0 0 0 0 0 0 0 127 0" result="hardAlpha"/>
<feOffset/>
<feGaussianBlur stdDeviation="0.25"/>
<feComposite in2="hardAlpha" operator="arithmetic" k2="-1" k3="1"/>
<feColorMatrix type="matrix" values="0 0 0 0 1 0 0 0 0 1 0 0 0 0 1 0 0 0 0.6 0"/>
<feBlend mode="normal" in2="shape" result="effect2_innerShadow_4531_26265"/>
</filter>
<filter id="filter16_i_4531_26265" x="78.3421" y="61.0056" width="4.81073" height="6.28346" filterUnits="userSpaceOnUse" color-interpolation-filters="sRGB">
<feFlood flood-opacity="0" result="BackgroundImageFix"/>
<feBlend mode="normal" in="SourceGraphic" in2="BackgroundImageFix" result="shape"/>
<feColorMatrix in="SourceAlpha" type="matrix" values="0 0 0 0 0 0 0 0 0 0 0 0 0 0 0 0 0 0 127 0" result="hardAlpha"/>
<feOffset/>
<feGaussianBlur stdDeviation="1"/>
<feComposite in2="hardAlpha" operator="arithmetic" k2="-1" k3="1"/>
<feColorMatrix type="matrix" values="0 0 0 0 1 0 0 0 0 1 0 0 0 0 1 0 0 0 0.25 0"/>
<feBlend mode="normal" in2="shape" result="effect1_innerShadow_4531_26265"/>
</filter>
<filter id="filter17_di_4531_26265" x="64.51" y="50.7427" width="9.4433" height="10.4942" filterUnits="userSpaceOnUse" color-interpolation-filters="sRGB">
<feFlood flood-opacity="0" result="BackgroundImageFix"/>
<feColorMatrix in="SourceAlpha" type="matrix" values="0 0 0 0 0 0 0 0 0 0 0 0 0 0 0 0 0 0 127 0" result="hardAlpha"/>
<feOffset dx="0.5" dy="-1"/>
<feGaussianBlur stdDeviation="1"/>
<feComposite in2="hardAlpha" operator="out"/>
<feColorMatrix type="matrix" values="0 0 0 0 0.966667 0 0 0 0 0.957 0 0 0 0 0.9425 0 0 0 0.6 0"/>
<feBlend mode="normal" in2="BackgroundImageFix" result="effect1_dropShadow_4531_26265"/>
<feBlend mode="normal" in="SourceGraphic" in2="effect1_dropShadow_4531_26265" result="shape"/>
<feColorMatrix in="SourceAlpha" type="matrix" values="0 0 0 0 0 0 0 0 0 0 0 0 0 0 0 0 0 0 127 0" result="hardAlpha"/>
<feOffset/>
<feGaussianBlur stdDeviation="0.25"/>
<feComposite in2="hardAlpha" operator="arithmetic" k2="-1" k3="1"/>
<feColorMatrix type="matrix" values="0 0 0 0 1 0 0 0 0 1 0 0 0 0 1 0 0 0 0.6 0"/>
<feBlend mode="normal" in2="shape" result="effect2_innerShadow_4531_26265"/>
</filter>
<filter id="filter18_i_4531_26265" x="66.0799" y="53.77" width="4.81049" height="6.28313" filterUnits="userSpaceOnUse" color-interpolation-filters="sRGB">
<feFlood flood-opacity="0" result="BackgroundImageFix"/>
<feBlend mode="normal" in="SourceGraphic" in2="BackgroundImageFix" result="shape"/>
<feColorMatrix in="SourceAlpha" type="matrix" values="0 0 0 0 0 0 0 0 0 0 0 0 0 0 0 0 0 0 127 0" result="hardAlpha"/>
<feOffset/>
<feGaussianBlur stdDeviation="1"/>
<feComposite in2="hardAlpha" operator="arithmetic" k2="-1" k3="1"/>
<feColorMatrix type="matrix" values="0 0 0 0 1 0 0 0 0 1 0 0 0 0 1 0 0 0 0.25 0"/>
<feBlend mode="normal" in2="shape" result="effect1_innerShadow_4531_26265"/>
</filter>
<filter id="filter19_di_4531_26265" x="55.2738" y="30.7144" width="11.3108" height="9.68686" filterUnits="userSpaceOnUse" color-interpolation-filters="sRGB">
<feFlood flood-opacity="0" result="BackgroundImageFix"/>
<feColorMatrix in="SourceAlpha" type="matrix" values="0 0 0 0 0 0 0 0 0 0 0 0 0 0 0 0 0 0 127 0" result="hardAlpha"/>
<feOffset dx="0.5" dy="-1"/>
<feGaussianBlur stdDeviation="1"/>
<feComposite in2="hardAlpha" operator="out"/>
<feColorMatrix type="matrix" values="0 0 0 0 0.966667 0 0 0 0 0.957 0 0 0 0 0.9425 0 0 0 0.6 0"/>
<feBlend mode="normal" in2="BackgroundImageFix" result="effect1_dropShadow_4531_26265"/>
<feBlend mode="normal" in="SourceGraphic" in2="effect1_dropShadow_4531_26265" result="shape"/>
<feColorMatrix in="SourceAlpha" type="matrix" values="0 0 0 0 0 0 0 0 0 0 0 0 0 0 0 0 0 0 127 0" result="hardAlpha"/>
<feOffset/>
<feGaussianBlur stdDeviation="0.25"/>
<feComposite in2="hardAlpha" operator="arithmetic" k2="-1" k3="1"/>
<feColorMatrix type="matrix" values="0 0 0 0 1 0 0 0 0 1 0 0 0 0 1 0 0 0 0.6 0"/>
<feBlend mode="normal" in2="shape" result="effect2_innerShadow_4531_26265"/>
</filter>
<filter id="filter20_i_4531_26265" x="56.9373" y="34.2943" width="6.9231" height="5.09744" filterUnits="userSpaceOnUse" color-interpolation-filters="sRGB">
<feFlood flood-opacity="0" result="BackgroundImageFix"/>
<feBlend mode="normal" in="SourceGraphic" in2="BackgroundImageFix" result="shape"/>
<feColorMatrix in="SourceAlpha" type="matrix" values="0 0 0 0 0 0 0 0 0 0 0 0 0 0 0 0 0 0 127 0" result="hardAlpha"/>
<feOffset/>
<feGaussianBlur stdDeviation="1"/>
<feComposite in2="hardAlpha" operator="arithmetic" k2="-1" k3="1"/>
<feColorMatrix type="matrix" values="0 0 0 0 1 0 0 0 0 1 0 0 0 0 1 0 0 0 0.25 0"/>
<feBlend mode="normal" in2="shape" result="effect1_innerShadow_4531_26265"/>
</filter>
<filter id="filter21_di_4531_26265" x="48.2738" y="24.4922" width="11.3108" height="9.68686" filterUnits="userSpaceOnUse" color-interpolation-filters="sRGB">
<feFlood flood-opacity="0" result="BackgroundImageFix"/>
<feColorMatrix in="SourceAlpha" type="matrix" values="0 0 0 0 0 0 0 0 0 0 0 0 0 0 0 0 0 0 127 0" result="hardAlpha"/>
<feOffset dx="0.5" dy="-1"/>
<feGaussianBlur stdDeviation="1"/>
<feComposite in2="hardAlpha" operator="out"/>
<feColorMatrix type="matrix" values="0 0 0 0 0.966667 0 0 0 0 0.957 0 0 0 0 0.9425 0 0 0 0.6 0"/>
<feBlend mode="normal" in2="BackgroundImageFix" result="effect1_dropShadow_4531_26265"/>
<feBlend mode="normal" in="SourceGraphic" in2="effect1_dropShadow_4531_26265" result="shape"/>
<feColorMatrix in="SourceAlpha" type="matrix" values="0 0 0 0 0 0 0 0 0 0 0 0 0 0 0 0 0 0 127 0" result="hardAlpha"/>
<feOffset/>
<feGaussianBlur stdDeviation="0.25"/>
<feComposite in2="hardAlpha" operator="arithmetic" k2="-1" k3="1"/>
<feColorMatrix type="matrix" values="0 0 0 0 1 0 0 0 0 1 0 0 0 0 1 0 0 0 0.6 0"/>
<feBlend mode="normal" in2="shape" result="effect2_innerShadow_4531_26265"/>
</filter>
<filter id="filter22_i_4531_26265" x="49.9376" y="28.0721" width="6.92279" height="5.09744" filterUnits="userSpaceOnUse" color-interpolation-filters="sRGB">
<feFlood flood-opacity="0" result="BackgroundImageFix"/>
<feBlend mode="normal" in="SourceGraphic" in2="BackgroundImageFix" result="shape"/>
<feColorMatrix in="SourceAlpha" type="matrix" values="0 0 0 0 0 0 0 0 0 0 0 0 0 0 0 0 0 0 127 0" result="hardAlpha"/>
<feOffset/>
<feGaussianBlur stdDeviation="1"/>
<feComposite in2="hardAlpha" operator="arithmetic" k2="-1" k3="1"/>
<feColorMatrix type="matrix" values="0 0 0 0 1 0 0 0 0 1 0 0 0 0 1 0 0 0 0.25 0"/>
<feBlend mode="normal" in2="shape" result="effect1_innerShadow_4531_26265"/>
</filter>
<filter id="filter23_di_4531_26265" x="64.6071" y="29.1588" width="11.3108" height="9.68686" filterUnits="userSpaceOnUse" color-interpolation-filters="sRGB">
<feFlood flood-opacity="0" result="BackgroundImageFix"/>
<feColorMatrix in="SourceAlpha" type="matrix" values="0 0 0 0 0 0 0 0 0 0 0 0 0 0 0 0 0 0 127 0" result="hardAlpha"/>
<feOffset dx="0.5" dy="-1"/>
<feGaussianBlur stdDeviation="1"/>
<feComposite in2="hardAlpha" operator="out"/>
<feColorMatrix type="matrix" values="0 0 0 0 0.966667 0 0 0 0 0.957 0 0 0 0 0.9425 0 0 0 0.6 0"/>
<feBlend mode="normal" in2="BackgroundImageFix" result="effect1_dropShadow_4531_26265"/>
<feBlend mode="normal" in="SourceGraphic" in2="effect1_dropShadow_4531_26265" result="shape"/>
<feColorMatrix in="SourceAlpha" type="matrix" values="0 0 0 0 0 0 0 0 0 0 0 0 0 0 0 0 0 0 127 0" result="hardAlpha"/>
<feOffset/>
<feGaussianBlur stdDeviation="0.25"/>
<feComposite in2="hardAlpha" operator="arithmetic" k2="-1" k3="1"/>
<feColorMatrix type="matrix" values="0 0 0 0 1 0 0 0 0 1 0 0 0 0 1 0 0 0 0.6 0"/>
<feBlend mode="normal" in2="shape" result="effect2_innerShadow_4531_26265"/>
</filter>
<filter id="filter24_i_4531_26265" x="66.2706" y="32.7387" width="6.92279" height="5.09744" filterUnits="userSpaceOnUse" color-interpolation-filters="sRGB">
<feFlood flood-opacity="0" result="BackgroundImageFix"/>
<feBlend mode="normal" in="SourceGraphic" in2="BackgroundImageFix" result="shape"/>
<feColorMatrix in="SourceAlpha" type="matrix" values="0 0 0 0 0 0 0 0 0 0 0 0 0 0 0 0 0 0 127 0" result="hardAlpha"/>
<feOffset/>
<feGaussianBlur stdDeviation="1"/>
<feComposite in2="hardAlpha" operator="arithmetic" k2="-1" k3="1"/>
<feColorMatrix type="matrix" values="0 0 0 0 1 0 0 0 0 1 0 0 0 0 1 0 0 0 0.25 0"/>
<feBlend mode="normal" in2="shape" result="effect1_innerShadow_4531_26265"/>
</filter>
<filter id="filter25_di_4531_26265" x="57.607" y="22.1588" width="11.3108" height="9.68686" filterUnits="userSpaceOnUse" color-interpolation-filters="sRGB">
<feFlood flood-opacity="0" result="BackgroundImageFix"/>
<feColorMatrix in="SourceAlpha" type="matrix" values="0 0 0 0 0 0 0 0 0 0 0 0 0 0 0 0 0 0 127 0" result="hardAlpha"/>
<feOffset dx="0.5" dy="-1"/>
<feGaussianBlur stdDeviation="1"/>
<feComposite in2="hardAlpha" operator="out"/>
<feColorMatrix type="matrix" values="0 0 0 0 0.966667 0 0 0 0 0.957 0 0 0 0 0.9425 0 0 0 0.6 0"/>
<feBlend mode="normal" in2="BackgroundImageFix" result="effect1_dropShadow_4531_26265"/>
<feBlend mode="normal" in="SourceGraphic" in2="effect1_dropShadow_4531_26265" result="shape"/>
<feColorMatrix in="SourceAlpha" type="matrix" values="0 0 0 0 0 0 0 0 0 0 0 0 0 0 0 0 0 0 127 0" result="hardAlpha"/>
<feOffset/>
<feGaussianBlur stdDeviation="0.25"/>
<feComposite in2="hardAlpha" operator="arithmetic" k2="-1" k3="1"/>
<feColorMatrix type="matrix" values="0 0 0 0 1 0 0 0 0 1 0 0 0 0 1 0 0 0 0.6 0"/>
<feBlend mode="normal" in2="shape" result="effect2_innerShadow_4531_26265"/>
</filter>
<filter id="filter26_i_4531_26265" x="59.2708" y="25.7387" width="6.92279" height="5.09744" filterUnits="userSpaceOnUse" color-interpolation-filters="sRGB">
<feFlood flood-opacity="0" result="BackgroundImageFix"/>
<feBlend mode="normal" in="SourceGraphic" in2="BackgroundImageFix" result="shape"/>
<feColorMatrix in="SourceAlpha" type="matrix" values="0 0 0 0 0 0 0 0 0 0 0 0 0 0 0 0 0 0 127 0" result="hardAlpha"/>
<feOffset/>
<feGaussianBlur stdDeviation="1"/>
<feComposite in2="hardAlpha" operator="arithmetic" k2="-1" k3="1"/>
<feColorMatrix type="matrix" values="0 0 0 0 1 0 0 0 0 1 0 0 0 0 1 0 0 0 0.25 0"/>
<feBlend mode="normal" in2="shape" result="effect1_innerShadow_4531_26265"/>
</filter>
<filter id="filter27_di_4531_26265" x="73.94" y="27.6032" width="11.3108" height="9.68686" filterUnits="userSpaceOnUse" color-interpolation-filters="sRGB">
<feFlood flood-opacity="0" result="BackgroundImageFix"/>
<feColorMatrix in="SourceAlpha" type="matrix" values="0 0 0 0 0 0 0 0 0 0 0 0 0 0 0 0 0 0 127 0" result="hardAlpha"/>
<feOffset dx="0.5" dy="-1"/>
<feGaussianBlur stdDeviation="1"/>
<feComposite in2="hardAlpha" operator="out"/>
<feColorMatrix type="matrix" values="0 0 0 0 0.966667 0 0 0 0 0.957 0 0 0 0 0.9425 0 0 0 0.6 0"/>
<feBlend mode="normal" in2="BackgroundImageFix" result="effect1_dropShadow_4531_26265"/>
<feBlend mode="normal" in="SourceGraphic" in2="effect1_dropShadow_4531_26265" result="shape"/>
<feColorMatrix in="SourceAlpha" type="matrix" values="0 0 0 0 0 0 0 0 0 0 0 0 0 0 0 0 0 0 127 0" result="hardAlpha"/>
<feOffset/>
<feGaussianBlur stdDeviation="0.25"/>
<feComposite in2="hardAlpha" operator="arithmetic" k2="-1" k3="1"/>
<feColorMatrix type="matrix" values="0 0 0 0 1 0 0 0 0 1 0 0 0 0 1 0 0 0 0.6 0"/>
<feBlend mode="normal" in2="shape" result="effect2_innerShadow_4531_26265"/>
</filter>
<filter id="filter28_i_4531_26265" x="75.6037" y="31.1831" width="6.92279" height="5.09744" filterUnits="userSpaceOnUse" color-interpolation-filters="sRGB">
<feFlood flood-opacity="0" result="BackgroundImageFix"/>
<feBlend mode="normal" in="SourceGraphic" in2="BackgroundImageFix" result="shape"/>
<feColorMatrix in="SourceAlpha" type="matrix" values="0 0 0 0 0 0 0 0 0 0 0 0 0 0 0 0 0 0 127 0" result="hardAlpha"/>
<feOffset/>
<feGaussianBlur stdDeviation="1"/>
<feComposite in2="hardAlpha" operator="arithmetic" k2="-1" k3="1"/>
<feColorMatrix type="matrix" values="0 0 0 0 1 0 0 0 0 1 0 0 0 0 1 0 0 0 0.25 0"/>
<feBlend mode="normal" in2="shape" result="effect1_innerShadow_4531_26265"/>
</filter>
<filter id="filter29_di_4531_26265" x="66.9403" y="20.6032" width="11.3108" height="9.68686" filterUnits="userSpaceOnUse" color-interpolation-filters="sRGB">
<feFlood flood-opacity="0" result="BackgroundImageFix"/>
<feColorMatrix in="SourceAlpha" type="matrix" values="0 0 0 0 0 0 0 0 0 0 0 0 0 0 0 0 0 0 127 0" result="hardAlpha"/>
<feOffset dx="0.5" dy="-1"/>
<feGaussianBlur stdDeviation="1"/>
<feComposite in2="hardAlpha" operator="out"/>
<feColorMatrix type="matrix" values="0 0 0 0 0.966667 0 0 0 0 0.957 0 0 0 0 0.9425 0 0 0 0.6 0"/>
<feBlend mode="normal" in2="BackgroundImageFix" result="effect1_dropShadow_4531_26265"/>
<feBlend mode="normal" in="SourceGraphic" in2="effect1_dropShadow_4531_26265" result="shape"/>
<feColorMatrix in="SourceAlpha" type="matrix" values="0 0 0 0 0 0 0 0 0 0 0 0 0 0 0 0 0 0 127 0" result="hardAlpha"/>
<feOffset/>
<feGaussianBlur stdDeviation="0.25"/>
<feComposite in2="hardAlpha" operator="arithmetic" k2="-1" k3="1"/>
<feColorMatrix type="matrix" values="0 0 0 0 1 0 0 0 0 1 0 0 0 0 1 0 0 0 0.6 0"/>
<feBlend mode="normal" in2="shape" result="effect2_innerShadow_4531_26265"/>
</filter>
<filter id="filter30_i_4531_26265" x="68.6039" y="24.1831" width="6.92279" height="5.09744" filterUnits="userSpaceOnUse" color-interpolation-filters="sRGB">
<feFlood flood-opacity="0" result="BackgroundImageFix"/>
<feBlend mode="normal" in="SourceGraphic" in2="BackgroundImageFix" result="shape"/>
<feColorMatrix in="SourceAlpha" type="matrix" values="0 0 0 0 0 0 0 0 0 0 0 0 0 0 0 0 0 0 127 0" result="hardAlpha"/>
<feOffset/>
<feGaussianBlur stdDeviation="1"/>
<feComposite in2="hardAlpha" operator="arithmetic" k2="-1" k3="1"/>
<feColorMatrix type="matrix" values="0 0 0 0 1 0 0 0 0 1 0 0 0 0 1 0 0 0 0.25 0"/>
<feBlend mode="normal" in2="shape" result="effect1_innerShadow_4531_26265"/>
</filter>
<linearGradient id="paint0_linear_4531_26265" x1="3" y1="69" x2="125" y2="69" gradientUnits="userSpaceOnUse">
<stop stop-color="#CC5726"/>
<stop offset="0.123808" stop-color="#C05222"/>
<stop offset="1" stop-color="#EFA33F"/>
</linearGradient>
<linearGradient id="paint1_linear_4531_26265" x1="64.063" y1="18" x2="64.063" y2="74" gradientUnits="userSpaceOnUse">
<stop stop-color="#FFEEC1"/>
<stop offset="0.510417" stop-color="#FFF9EA"/>
<stop offset="0.927083" stop-color="#FFF3D3"/>
</linearGradient>
<linearGradient id="paint2_linear_4531_26265" x1="47.3226" y1="33.9391" x2="47.3226" y2="73.0201" gradientUnits="userSpaceOnUse">
<stop stop-color="#EFD58F"/>
<stop offset="1" stop-color="#FFF5DA" stop-opacity="0"/>
</linearGradient>
<linearGradient id="paint3_linear_4531_26265" x1="73.8937" y1="45.9045" x2="73.8937" y2="74" gradientUnits="userSpaceOnUse">
<stop stop-color="#F5E2AF"/>
<stop offset="1" stop-color="#FFF5DA" stop-opacity="0"/>
</linearGradient>
<linearGradient id="paint4_linear_4531_26265" x1="55.613" y1="19.0436" x2="80.826" y2="43.5749" gradientUnits="userSpaceOnUse">
<stop stop-color="#FFF7E2"/>
<stop offset="1" stop-color="white"/>
</linearGradient>
<radialGradient id="paint5_radial_4531_26265" cx="0" cy="0" r="1" gradientUnits="userSpaceOnUse" gradientTransform="translate(55.4732 52.9611) rotate(-105.668) scale(4.51299 6.12719)">
<stop stop-color="#D6931E"/>
<stop offset="1" stop-color="#BA670A"/>
</radialGradient>
<radialGradient id="paint6_radial_4531_26265" cx="0" cy="0" r="1" gradientUnits="userSpaceOnUse" gradientTransform="translate(48.245 53.2569) rotate(-105.668) scale(4.51299 6.12719)">
<stop stop-color="#D6931E"/>
<stop offset="1" stop-color="#BA670A"/>
</radialGradient>
<radialGradient id="paint7_radial_4531_26265" cx="0" cy="0" r="1" gradientUnits="userSpaceOnUse" gradientTransform="translate(41.017 53.5975) rotate(-105.668) scale(4.513 6.12717)">
<stop stop-color="#D6931E"/>
<stop offset="1" stop-color="#BA670A"/>
</radialGradient>
<radialGradient id="paint8_radial_4531_26265" cx="0" cy="0" r="1" gradientUnits="userSpaceOnUse" gradientTransform="translate(81.0253 63.4117) rotate(121.519) scale(4.22659 5.6926)">
<stop stop-color="#D6931E"/>
<stop offset="1" stop-color="#BA670A"/>
</radialGradient>
<radialGradient id="paint9_radial_4531_26265" cx="0" cy="0" r="1" gradientUnits="userSpaceOnUse" gradientTransform="translate(68.763 56.176) rotate(121.52) scale(4.22634 5.69232)">
<stop stop-color="#D6931E"/>
<stop offset="1" stop-color="#BA670A"/>
</radialGradient>
<radialGradient id="paint10_radial_4531_26265" cx="0" cy="0" r="1" gradientUnits="userSpaceOnUse" gradientTransform="translate(59.5579 36.7035) rotate(20.4687) scale(4.59206 6.29758)">
<stop stop-color="#D6931E"/>
<stop offset="1" stop-color="#BA670A"/>
</radialGradient>
<radialGradient id="paint11_radial_4531_26265" cx="0" cy="0" r="1" gradientUnits="userSpaceOnUse" gradientTransform="translate(52.5581 30.4813) rotate(20.4693) scale(4.5919 6.2975)">
<stop stop-color="#D6931E"/>
<stop offset="1" stop-color="#BA670A"/>
</radialGradient>
<radialGradient id="paint12_radial_4531_26265" cx="0" cy="0" r="1" gradientUnits="userSpaceOnUse" gradientTransform="translate(68.8911 35.1479) rotate(20.4693) scale(4.5919 6.2975)">
<stop stop-color="#D6931E"/>
<stop offset="1" stop-color="#BA670A"/>
</radialGradient>
<radialGradient id="paint13_radial_4531_26265" cx="0" cy="0" r="1" gradientUnits="userSpaceOnUse" gradientTransform="translate(61.8913 28.148) rotate(20.4693) scale(4.5919 6.2975)">
<stop stop-color="#D6931E"/>
<stop offset="1" stop-color="#BA670A"/>
</radialGradient>
<radialGradient id="paint14_radial_4531_26265" cx="0" cy="0" r="1" gradientUnits="userSpaceOnUse" gradientTransform="translate(78.2242 33.5923) rotate(20.4692) scale(4.59191 6.2975)">
<stop stop-color="#D6931E"/>
<stop offset="1" stop-color="#BA670A"/>
</radialGradient>
<radialGradient id="paint15_radial_4531_26265" cx="0" cy="0" r="1" gradientUnits="userSpaceOnUse" gradientTransform="translate(71.2244 26.5924) rotate(20.4692) scale(4.59191 6.2975)">
<stop stop-color="#D6931E"/>
<stop offset="1" stop-color="#BA670A"/>
</radialGradient>
</defs>
</svg>
