<?xml version="1.0" encoding="UTF-8"?>
<svg id="_图层_2" data-name="图层 2" xmlns="http://www.w3.org/2000/svg" xmlns:xlink="http://www.w3.org/1999/xlink" viewBox="0 0 338.17 400.29">
  <defs>
    <style>
      .cls-1 {
        fill: url(#_未命名的渐变_11);
      }

      .cls-1, .cls-2, .cls-3, .cls-4, .cls-5, .cls-6, .cls-7, .cls-8, .cls-9, .cls-10, .cls-11 {
        stroke-width: 0px;
      }

      .cls-2 {
        fill: url(#_未命名的渐变_10);
      }

      .cls-3 {
        fill: url(#radial-gradient);
      }

      .cls-4 {
        fill: url(#radial-gradient-2);
      }

      .cls-4, .cls-5, .cls-6, .cls-7, .cls-8, .cls-9, .cls-10 {
        fill-rule: evenodd;
      }

      .cls-5 {
        fill: url(#radial-gradient-7);
      }

      .cls-6 {
        fill: url(#radial-gradient-4);
      }

      .cls-7 {
        fill: url(#radial-gradient-6);
      }

      .cls-8 {
        fill: url(#radial-gradient-3);
      }

      .cls-9 {
        fill: url(#radial-gradient-5);
      }

      .cls-10 {
        fill: url(#_未命名的渐变_8);
      }

      .cls-11 {
        fill: url(#_未命名的渐变_9);
      }
    </style>
    <radialGradient id="_未命名的渐变_11" data-name="未命名的渐变 11" cx="144.69" cy="222.08" fx="144.69" fy="222.08" r="289.57" gradientUnits="userSpaceOnUse">
      <stop offset="0" stop-color="#6197f8"/>
      <stop offset=".64" stop-color="#2067ec"/>
      <stop offset=".69" stop-color="#1b5cd5"/>
      <stop offset=".77" stop-color="#144db7"/>
      <stop offset=".85" stop-color="#0f43a2"/>
      <stop offset=".93" stop-color="#0c3d95"/>
      <stop offset="1" stop-color="#0c3b91"/>
    </radialGradient>
    <radialGradient id="_未命名的渐变_9" data-name="未命名的渐变 9" cx="84.21" cy="44.37" fx="84.21" fy="44.37" r="263" gradientUnits="userSpaceOnUse">
      <stop offset="0" stop-color="#e9efff"/>
      <stop offset="1" stop-color="#95b3ff"/>
    </radialGradient>
    <radialGradient id="_未命名的渐变_10" data-name="未命名的渐变 10" cx=".23" cy="203.4" fx=".23" fy="203.4" r="249.33" gradientUnits="userSpaceOnUse">
      <stop offset="0" stop-color="#558aff"/>
      <stop offset="1" stop-color="#104cbb"/>
    </radialGradient>
    <radialGradient id="radial-gradient" cx="184.63" cy="261.32" fx="184.63" fy="261.32" r="251.56" gradientUnits="userSpaceOnUse">
      <stop offset="0" stop-color="#1e66eb"/>
      <stop offset="1" stop-color="#0d3d95"/>
    </radialGradient>
    <radialGradient id="radial-gradient-2" cx="127.46" cy="-608.73" fx="127.46" fy="-608.73" r="45.48" gradientTransform="translate(153.72 837.6) rotate(-25.07)" gradientUnits="userSpaceOnUse">
      <stop offset="0" stop-color="#d9f2fc"/>
      <stop offset=".26" stop-color="#d6effa"/>
      <stop offset=".44" stop-color="#cde8f6"/>
      <stop offset=".6" stop-color="#bdddef"/>
      <stop offset=".74" stop-color="#a8cce5"/>
      <stop offset=".87" stop-color="#8cb6d8"/>
      <stop offset=".99" stop-color="#6a9cc8"/>
      <stop offset="1" stop-color="#679ac7"/>
    </radialGradient>
    <radialGradient id="radial-gradient-3" cx="165.42" cy="-443.1" fx="165.42" fy="-443.1" r="45.48" xlink:href="#radial-gradient-2"/>
    <radialGradient id="radial-gradient-4" cx="437.54" cy="-849.6" fx="437.54" fy="-849.6" r="39.12" gradientTransform="translate(447.64 1241.65) rotate(-40.46)" gradientUnits="userSpaceOnUse">
      <stop offset="0" stop-color="#f2fbff"/>
      <stop offset=".28" stop-color="#eff9fe"/>
      <stop offset=".47" stop-color="#e6f3fb"/>
      <stop offset=".64" stop-color="#d6e9f7"/>
      <stop offset=".79" stop-color="#c1dbf1"/>
      <stop offset=".93" stop-color="#a5c9ea"/>
      <stop offset="1" stop-color="#95bfe6"/>
    </radialGradient>
    <radialGradient id="radial-gradient-5" cx="412.64" cy="-813.85" fx="412.64" fy="-813.85" r="39.12" xlink:href="#radial-gradient-4"/>
    <radialGradient id="radial-gradient-6" cx="519.21" cy="-817.62" fx="519.21" fy="-817.62" r="39.12" xlink:href="#radial-gradient-4"/>
    <radialGradient id="radial-gradient-7" cx="537.03" cy="-847.68" fx="537.03" fy="-847.68" xlink:href="#radial-gradient-4"/>
    <radialGradient id="_未命名的渐变_8" data-name="未命名的渐变 8" cx="1051.81" cy="1173.62" fx="1051.81" fy="1173.62" r="90.82" gradientTransform="translate(365.4 -1456.66) rotate(50.25)" gradientUnits="userSpaceOnUse">
      <stop offset="0" stop-color="#6aa1ff"/>
      <stop offset=".26" stop-color="#679eff"/>
      <stop offset=".44" stop-color="#6195ff"/>
      <stop offset=".6" stop-color="#5585ff"/>
      <stop offset=".74" stop-color="#4570ff"/>
      <stop offset=".87" stop-color="#3054ff"/>
      <stop offset=".99" stop-color="#1632ff"/>
      <stop offset="1" stop-color="#1531ff"/>
    </radialGradient>
  </defs>
  <g id="_图层_1-2" data-name="图层 1">
    <g>
      <path class="cls-1" d="m8.8,129.99C28.38,113.3,137.15,21.17,152.5,10.01s30.69-15.35,46.04,0c15.35,15.35,113.01,108.12,127.04,122.77s12.21,27.46,12.21,37.84-.45,60.42.08,72.01-3.13,20.14-12.89,29.29c-9.76,9.15-126.94,109.85-137.93,119.62-10.99,9.76-26.24,13.43-37.84,0-11.6-13.43-131.89-130.6-140.4-140.37C.29,241.41-.32,234.08.29,221.27s.27-60.41-.17-69.57c-.44-9.15-.14-14.19,8.68-21.71Z"/>
      <path class="cls-11" d="m19.36,157.99c15.08,15.24,117.89,109.33,130.41,121.19,12.51,11.86,19.1,10.54,31.61,0,12.51-10.54,130.01-112.94,141.42-126.43,11.42-13.49,1.31-21.44-4.43-27.18-5.74-5.74-117.22-116-126.09-121.74-8.88-5.74-28.42-5.23-38.34,3.12S25.61,115.14,14.05,125.52c-10.44,9.38-1.74,25.35,5.31,32.47Z"/>
      <path class="cls-2" d="m4.34,245.51c11.83,13.14,136,136.65,145.2,143.22,9.2,6.57,13.14,2.63,13.8-8.54.66-11.17.66-48.71,0-61.48-.66-12.76-5.26-17.36-15.11-25.9-9.85-8.54-128.77-123.51-135.34-128.77-6.57-5.26-11.17-4.6-11.83,4.6-.66,9.2,0,53.87,0,60.44s3.28,16.42,3.28,16.42Z"/>
      <path class="cls-3" d="m184.99,394.06c8.74-4.37,128.29-108.49,136.83-117.68s17.4-15.83,16.09-36.19,1.18-72.81-.13-80.02c-1.31-7.21-9.54-.06-18.74,9.13-9.2,9.2-133.37,121.54-139.94,127.46s-5.26,9.85-5.91,21.02c-.66,11.17,0,62.41,0,70.3s-1.33,12.55,11.81,5.98Z"/>
      <path class="cls-4" d="m18.29,188.6c6.07,1.84,15.14,11.77,20.27,22.18,5.14,10.44,4.35,17.26-1.75,15.26-6.11-2-15.18-11.9-20.3-22.2-5.09-10.24-4.3-17.07,1.77-15.23h0Z"/>
      <path class="cls-8" d="m122.86,322.55c6.07,1.84,15.14,11.77,20.27,22.18,5.14,10.44,4.35,17.26-1.75,15.26-6.11-2-15.18-11.9-20.3-22.2-5.09-10.24-4.3-17.07,1.77-15.23h0Z"/>
      <path class="cls-6" d="m203.03,298.68c7.39-8.38,18.47-15.54,24.81-16.05,6.31-.48,5.37,6.03-2.09,14.57-7.45,8.51-18.53,15.69-24.77,16.03-6.25.34-5.33-6.17,2.06-14.55h0Z"/>
      <path class="cls-9" d="m207.29,342.04c7.39-8.38,18.47-15.54,24.81-16.05,6.31-.48,5.37,6.03-2.09,14.57-7.45,8.51-18.53,15.69-24.77,16.03-6.25.34-5.33-6.17,2.06-14.55h0Z"/>
      <path class="cls-7" d="m285.93,270.02c7.39-8.38,18.47-15.54,24.81-16.05,6.31-.48,5.37,6.03-2.09,14.57-7.45,8.51-18.53,15.69-24.77,16.03-6.25.34-5.33-6.17,2.06-14.55h0Z"/>
      <path class="cls-5" d="m279.98,235.59c7.39-8.38,18.47-15.54,24.81-16.05,6.31-.48,5.37,6.03-2.09,14.57-7.45,8.51-18.53,15.69-24.77,16.03-6.25.34-5.33-6.17,2.06-14.55h0Z"/>
      <path class="cls-10" d="m200.05,109.34c18.39,15.08,18.16,39.8-.56,55.3-18.64,15.5-48.7,16.13-67.13,1.25-18.41-14.76-18.12-39.57.56-55.3,18.68-15.73,48.73-16.33,67.13-1.25h0Z"/>
    </g>
  </g>
</svg>