<?xml version="1.0" encoding="UTF-8"?>
<svg id="_图层_2" data-name="图层 2" xmlns="http://www.w3.org/2000/svg" xmlns:xlink="http://www.w3.org/1999/xlink" viewBox="0 0 338.2 400.29">
  <defs>
    <style>
      .cls-1 {
        fill: url(#_未命名的渐变_11);
      }

      .cls-1, .cls-2, .cls-3, .cls-4, .cls-5, .cls-6, .cls-7, .cls-8, .cls-9, .cls-10, .cls-11 {
        stroke-width: 0px;
      }

      .cls-2 {
        fill: url(#_未命名的渐变_10);
      }

      .cls-3 {
        fill: url(#radial-gradient);
      }

      .cls-4 {
        fill: url(#radial-gradient-2);
      }

      .cls-4, .cls-5, .cls-6, .cls-7, .cls-9, .cls-10, .cls-11 {
        fill-rule: evenodd;
      }

      .cls-5 {
        fill: url(#radial-gradient-4);
      }

      .cls-6 {
        fill: url(#radial-gradient-3);
      }

      .cls-7 {
        fill: url(#_未命名的渐变_8);
      }

      .cls-8 {
        fill: url(#_未命名的渐变_9);
      }

      .cls-9 {
        fill: url(#_未命名的渐变_8-2);
      }

      .cls-10 {
        fill: url(#_未命名的渐变_8-4);
      }

      .cls-11 {
        fill: url(#_未命名的渐变_8-3);
      }
    </style>
    <radialGradient id="_未命名的渐变_11" data-name="未命名的渐变 11" cx="144.69" cy="222.08" fx="144.69" fy="222.08" r="289.57" gradientUnits="userSpaceOnUse">
      <stop offset="0" stop-color="#6197f8"/>
      <stop offset=".64" stop-color="#2067ec"/>
      <stop offset=".69" stop-color="#1b5cd5"/>
      <stop offset=".77" stop-color="#144db7"/>
      <stop offset=".85" stop-color="#0f43a2"/>
      <stop offset=".93" stop-color="#0c3d95"/>
      <stop offset="1" stop-color="#0c3b91"/>
    </radialGradient>
    <radialGradient id="_未命名的渐变_9" data-name="未命名的渐变 9" cx="84.21" cy="44.37" fx="84.21" fy="44.37" r="263" gradientUnits="userSpaceOnUse">
      <stop offset="0" stop-color="#e9efff"/>
      <stop offset="1" stop-color="#95b3ff"/>
    </radialGradient>
    <radialGradient id="_未命名的渐变_10" data-name="未命名的渐变 10" cx=".23" cy="203.64" fx=".23" fy="203.64" r="250.14" gradientUnits="userSpaceOnUse">
      <stop offset="0" stop-color="#558aff"/>
      <stop offset="1" stop-color="#104cbb"/>
    </radialGradient>
    <radialGradient id="radial-gradient" cx="183.66" cy="261.25" fx="183.66" fy="261.25" r="251.83" gradientUnits="userSpaceOnUse">
      <stop offset="0" stop-color="#1e66eb"/>
      <stop offset="1" stop-color="#0d3d95"/>
    </radialGradient>
    <radialGradient id="radial-gradient-2" cx="-546.21" cy="-693.18" fx="-546.21" fy="-693.18" r="74.7" gradientTransform="translate(869.59 653.54) rotate(-28.98)" gradientUnits="userSpaceOnUse">
      <stop offset="0" stop-color="#d9f2fc"/>
      <stop offset=".26" stop-color="#d6effa"/>
      <stop offset=".44" stop-color="#cde8f6"/>
      <stop offset=".6" stop-color="#bdddef"/>
      <stop offset=".74" stop-color="#a8cce5"/>
      <stop offset=".87" stop-color="#8cb6d8"/>
      <stop offset=".99" stop-color="#6a9cc8"/>
      <stop offset="1" stop-color="#679ac7"/>
    </radialGradient>
    <radialGradient id="radial-gradient-3" cx="-463.94" cy="-1181.81" fx="-463.94" fy="-1181.81" r="39.12" gradientTransform="translate(1349.11 909.45) rotate(-40.46)" gradientUnits="userSpaceOnUse">
      <stop offset="0" stop-color="#f2fbff"/>
      <stop offset=".28" stop-color="#eff9fe"/>
      <stop offset=".47" stop-color="#e6f3fb"/>
      <stop offset=".64" stop-color="#d6e9f7"/>
      <stop offset=".79" stop-color="#c1dbf1"/>
      <stop offset=".93" stop-color="#a5c9ea"/>
      <stop offset="1" stop-color="#95bfe6"/>
    </radialGradient>
    <radialGradient id="radial-gradient-4" cx="-382.27" cy="-1149.83" fx="-382.27" fy="-1149.83" r="39.12" xlink:href="#radial-gradient-3"/>
    <radialGradient id="_未命名的渐变_8" data-name="未命名的渐变 8" cx="2085.46" cy="742.18" fx="2085.46" fy="742.18" r="44.54" gradientTransform="translate(-702.76 -1957.64) rotate(50.25)" gradientUnits="userSpaceOnUse">
      <stop offset="0" stop-color="#6aa1ff"/>
      <stop offset=".26" stop-color="#679eff"/>
      <stop offset=".44" stop-color="#6195ff"/>
      <stop offset=".6" stop-color="#5585ff"/>
      <stop offset=".74" stop-color="#4570ff"/>
      <stop offset=".87" stop-color="#3054ff"/>
      <stop offset=".99" stop-color="#1632ff"/>
      <stop offset="1" stop-color="#1531ff"/>
    </radialGradient>
    <radialGradient id="_未命名的渐变_8-2" data-name="未命名的渐变 8" cx="2086.23" cy="620.68" fx="2086.23" fy="620.68" r="44.54" xlink:href="#_未命名的渐变_8"/>
    <radialGradient id="_未命名的渐变_8-3" data-name="未命名的渐变 8" cx="2206.74" cy="724.48" fx="2206.74" fy="724.48" r="44.54" xlink:href="#_未命名的渐变_8"/>
    <radialGradient id="_未命名的渐变_8-4" data-name="未命名的渐变 8" cx="2200.72" cy="603.58" fx="2200.72" fy="603.58" r="44.54" xlink:href="#_未命名的渐变_8"/>
  </defs>
  <g id="_图层_1-2" data-name="图层 1">
    <g>
      <path class="cls-1" d="m8.8,129.99C28.38,113.3,137.15,21.17,152.5,10.01s30.69-15.35,46.04,0c15.35,15.35,113.01,108.12,127.04,122.77s12.21,27.46,12.21,37.84-.45,60.42.08,72.01-3.13,20.14-12.89,29.29c-9.76,9.15-126.94,109.85-137.93,119.62-10.99,9.76-26.24,13.43-37.84,0-11.6-13.43-131.89-130.6-140.4-140.37C.29,241.41-.32,234.08.29,221.27s.27-60.41-.17-69.57c-.44-9.15-.14-14.19,8.68-21.71Z"/>
      <path class="cls-8" d="m19.36,157.99c15.08,15.24,117.89,109.33,130.41,121.19,12.51,11.86,19.1,10.54,31.61,0,12.51-10.54,130.01-112.94,141.42-126.43,11.42-13.49,1.31-21.44-4.43-27.18-5.74-5.74-117.22-116-126.09-121.74-8.88-5.74-28.42-5.23-38.34,3.12S25.61,115.14,14.05,125.52c-10.44,9.38-1.74,25.35,5.31,32.47Z"/>
      <path class="cls-2" d="m4.34,245.51c11.83,13.14,134.69,138.36,143.89,144.93,9.2,6.57,14.45.92,15.1-10.25.66-11.17.66-48.71,0-61.48-.66-12.76-5.26-17.36-15.11-25.9-9.85-8.54-128.77-123.51-135.34-128.77-6.57-5.26-11.17-4.6-11.83,4.6-.66,9.2,0,53.87,0,60.44s3.28,16.42,3.28,16.42Z"/>
      <path class="cls-3" d="m185.17,393.28c8.74-4.37,128.78-109.45,137.32-118.65s16.74-13.66,15.43-34.03,1.21-72.53-.1-79.74c-1.31-7.21-9.57-.75-18.77,8.45-9.2,9.2-133.37,121.54-139.94,127.46s-5.26,9.85-5.91,21.02c-.66,11.17-1.34,61.28-1.34,69.16s.19,12.91,13.33,6.34Z"/>
      <path class="cls-4" d="m62.59,239.59c10.15,2.33,26.13,17.6,35.71,34.07,9.59,16.53,9.07,27.8-1.16,25.2-10.24-2.6-26.2-17.8-35.75-34.11-9.49-16.21-8.95-27.49,1.2-25.16h0Z"/>
      <path class="cls-6" d="m203.03,298.68c7.39-8.38,18.47-15.54,24.81-16.05,6.31-.48,5.37,6.03-2.09,14.57-7.45,8.51-18.53,15.69-24.77,16.03-6.25.34-5.33-6.17,2.06-14.55h0Z"/>
      <path class="cls-5" d="m285.93,270.02c7.39-8.38,18.47-15.54,24.81-16.05,6.31-.48,5.37,6.03-2.09,14.57-7.45,8.51-18.53,15.69-24.77,16.03-6.25.34-5.33-6.17,2.06-14.55h0Z"/>
      <path class="cls-7" d="m91.63,123.76c9.02,7.39,8.9,19.52-.27,27.12-9.14,7.6-23.88,7.91-32.92.61-9.03-7.24-8.89-19.4.27-27.12,9.16-7.72,23.9-8.01,32.92-.61h0Z"/>
      <path class="cls-9" d="m185.55,46.67c9.02,7.39,8.9,19.52-.27,27.12-9.14,7.6-23.88,7.91-32.92.61-9.03-7.24-8.89-19.4.27-27.12,9.16-7.72,23.9-8.01,32.92-.61h0Z"/>
      <path class="cls-11" d="m182.79,205.69c9.02,7.39,8.9,19.52-.27,27.12-9.14,7.6-23.88,7.91-32.92.61-9.03-7.24-8.89-19.4.27-27.12,9.16-7.72,23.9-8.01,32.92-.61h0Z"/>
      <path class="cls-10" d="m271.9,123.76c9.02,7.39,8.9,19.52-.27,27.12-9.14,7.6-23.88,7.91-32.92.61-9.03-7.24-8.89-19.4.27-27.12,9.16-7.72,23.9-8.01,32.92-.61h0Z"/>
    </g>
  </g>
</svg>